/* XPM */
static char *_488f3215a0340e6e6b1f5100e81c0cdIQgdfV6waSU0PPVX[] = {
/* columns rows colors chars-per-pixel */
"64 64 120 2 ",
"   c black",
".  c #202020",
"X  c #2C2C2C",
"o  c #343434",
"O  c gray22",
"+  c #404000",
"@  c #585400",
"#  c #706C00",
"$  c #004040",
"%  c #005858",
"&  c #006C6C",
"*  c #007070",
"=  c #007A7A",
"-  c #397B7B",
";  c #484848",
":  c #545454",
">  c #646464",
",  c gray44",
"<  c #7C7C7C",
"1  c #848400",
"2  c #B4AC00",
"3  c #CCC400",
"4  c #E4D800",
"5  c #FCF400",
"6  c #848151",
"7  c #949451",
"8  c #D1CA51",
"9  c #008484",
"0  c #008C8C",
"q  c #009898",
"w  c #398585",
"e  c #00A4A4",
"r  c #39A9A9",
"t  c #20B2B2",
"y  c #4C8B8B",
"u  c #518A8A",
"i  c #519A9A",
"p  c #6F9898",
"a  c #7F9E9E",
"s  c #51A4A4",
"d  c #57BABA",
"f  c #7FA3A3",
"g  c #7FA9A9",
"h  c #7FB5B5",
"j  c #48C0C0",
"k  c #69C6C6",
"l  c #73C0C0",
"z  c #74C8C8",
"x  c #7FCCCC",
"c  c #848484",
"v  c gray55",
"b  c gray59",
"n  c #989898",
"m  c #90AAAA",
"M  c #9EABAB",
"N  c #9EBBBB",
"B  c #A3A3A3",
"V  c #A9A9A9",
"C  c #A7BCBC",
"Z  c #B4B4B4",
"A  c #BCBCB9",
"S  c #C1C1A9",
"D  c #82C6C6",
"F  c #94C5C5",
"G  c #9FCCCC",
"H  c #8CD0D0",
"J  c #9CDCDC",
"K  c #A6C2C2",
"L  c #AEC1C1",
"P  c #A6CDCD",
"I  c #AFC8C8",
"U  c #B2C2C2",
"Y  c #BBCCCC",
"T  c #A4D3D3",
"R  c #ABD4D4",
"E  c #A7D8D8",
"W  c #ADDBDB",
"Q  c #B2D6D6",
"!  c #B9D2D2",
"~  c #B3D9D9",
"^  c #BBDCDC",
"/  c #B7E4E4",
"(  c #BEE6E6",
")  c #B8E8E8",
"_  c #C3C3C3",
"`  c #CDCDCC",
"'  c #D4D4C4",
"]  c #C3D3D3",
"[  c #CBD1D1",
"{  c #C1DDDD",
"}  c #CBDADA",
"|  c #D3D3D3",
" . c #D5DDDD",
".. c #DBDBDB",
"X. c #E6E4CE",
"o. c #EBEADD",
"O. c #C5E2E2",
"+. c #CBE4E4",
"@. c #C6ECEC",
"#. c #D3E4E4",
"$. c #DBE3E3",
"%. c #D5E9E9",
"&. c #DCECEC",
"*. c #D8F4F4",
"=. c #E3E4E3",
"-. c #E9E9E2",
";. c #E4EDED",
":. c #EAEBEB",
">. c #F5F4E5",
",. c #E4F1F1",
"<. c #EBF4F4",
"1. c #EFFAFA",
"2. c #F2F5F5",
"3. c #F0F9F9",
"4. c #F3F9F9",
"5. c #F5F9F9",
"6. c #F6FCFC",
"7. c gray98",
"8. c #F8FDFD",
"9. c #FBFCFC",
/* pixels */
"O O O O o o O O O O O O O O O O O O O O O O O O O O O O O O O O O O O O O O O O O O O O O O O O O O O O O O O O O O O O O O O O ",
"O = = = = = = = = = = = = = * = = = = * = = = = = = * = = = = = * = = = = = = = = = = = = * = = = = = L C f = Y u = = = = = * O ",
"o t q q 0 = & t 0 0 0 9 0 = & t q 9 0 0 0 * * t 0 0 0 0 0 = * t 0 0 0 0 0 = & t 0 0 0 0 0 * * t 0 0 I :.} m  .D 9 0 0 0 0 0 = O ",
"o t t t t = $ * t t t t t = $ * t t t t t = $ * t t t t t = $ * t t j j t = $ & j j j t t = $ * t &.6.<.~  .$ * t q 0 0 q 0 = O ",
"O t t t t * = 0 t t t t t = = 0 t t t t t = = 0 t t t t t = = 0 t j z J t = = 0 j j t t t = = K R <.5.&.~ = = 0 q 0 0 0 q 0 = O ",
"O t t t t 9 % % % % % % % % % % % % % % % % % % % % % % % % % % % % % % % % % % % % % % % % [ :.| 7.$.[ V % % % % % 0 q q 0 = O ",
"O t t t t t = = & * * * & * & * * * * * * * * * & & & * & & * * * * * & * * & * * * & & a :.=.U 9. . .m & * * * * % 0 q q 0 = O ",
"O q 9 ( t J t 9 0 0 0 0 0 0 0 0 0 0 0 0 0 0 q q 0 0 0 0 0 0 0 0 0 0 0 0 0 0 0 0 0 0 0 K 2.;.] 5.$.N i 0 0 0 0 0 & % q 9 ) 0 * O ",
"O = & 9 t ) d e e e e e e e e e e e e e e e e e t t t t t t t t t j t j t j t j t j O.,.,.,.%.^ T e e e q q q 0 * % = * 9 0 = O ",
"O = = 0 t ) z e e e e e e e e e e e e e e e t t t t t t t t t t j t j t j t j t x %.O.<.&.&.F ! e e e q q q q 0 * % = = 0 0 = O ",
"O e e t t / z e e e e e e e e e t e t t t t t t t t t t t j t j t j t j t j t D O.{ { { ^ ] F e e e q e q q q 0 * % q e e 0 = O ",
"O t t t t ) z e e e e e e e e e t t t t t t t t t t t t j t j t j t j t j t { <.+.O.+.O.#.P e e e q e q q 0 0 0 * % q e e 0 = O ",
"O t t t t ) z e e e e e e e e t t t t t t t t t t j t j t j t j t j t j t @.6.<.^ ^ &.&.D e e e q e q q 0 0 0 0 & % q e t 0 = O ",
"O t t t t ) z e e e e q e t t t t t t t t t t t j t j t j t j t j t j t { 1.&.~ D #.F t e e e q e q q q q 0 0 0 * % e e t 0 = O ",
"o t t t t ) z e e e q t t t t t t t t t t t t j t j t j t j t j t j t @.,.3.T R O.e t e e e q e q q q q 0 0 0 0 & % e t t 0 = O ",
"o q 9 / t ( z e e t t t t t t t t t t t t t j t j t j j j t j t j t *.*.6.O.Q Q r t e e e q e q q q q 0 0 0 0 0 * % q 9 ) 9 = O ",
"O = & 9 t ) z t t t t t t t t t t t t j t j t j t j t j t j t j t O.&.<.,.<.#.d t e e e e e q q q q 0 0 0 9 0 0 & % = * 9 0 = O ",
"O = = 0 t ( z t t t t t t t t t t t j t j t j t j t j t j t j t W { <.2.#.#.t t e e e e e q q q q 0 0 0 0 9 0 0 * % = = 0 0 = O ",
"O e e t t ) z t t t t t t t t t t j t j t j t j t j t j t j t W D ,.,.;.^ D t e e e e e q e q q 0 q 0 0 9 0 0 0 * % e e t 0 = O ",
"O t t t t ) z t j t t t t t t t j t j t j t j t j t j t j H ) J 2.2.%.{ d t e e e e e q e q q 0 q 0 0 0 9 0 0 0 * % e t t 0 = O ",
"o t t t t / z t t t t t t t t j t j t j t j t j t j t H D H t <.6.O.%.d t e e e e e q e q q 0 q 0 0 0 0 0 0 0 0 & % e t t 0 = O ",
"O t t t t / z t t t t t j t j t j t j t j t j t j t H D H D &.9.D O.d t e t e e e q e q q q q 0 0 0 0 9 0 0 0 0 & % t t t 9 = O ",
"O t t t t ) z t t t t j t j t j t j t j t j t j t H D k t +.5.&.D t t e t e e e e e q q q q 0 0 0 0 9 0 0 0 0 0 & % t t t 0 = O ",
"O q 9 ) t ) z t t t j t j t j t j t j t j t j t H D / &.&.&.O.P F t e t e e e e e q q q q 0 q 0 0 9 0 0 0 0 q 0 * % q 9 ) 9 = O ",
"O = & 9 t ) z t t j t j t j t j t j t j t j d E E ,.<.%.R &.Q t t e t e e e e e q q q q 0 q 0 0 9 0 0 0 0 0 0 0 * % = * 9 0 = O ",
"O = = 0 t ) z t j t j t j t j t j t j t j D E ~ ,.&.<.~ ;.#.t t e t e e e e e q q q q 0 q 0 0 9 0 9 0 0 0 0 q 0 * % = = 0 0 = O ",
"O e e t t ) z j t j t j t j t d t j t j D H G ~ %.&.~ <.$.t t t t e e e e e q e q q 0 q 0 0 9 0 9 0 0 0 0 q 0 0 * % e e e 0 = O ",
"O t t t t ) z t j t j t j t d B } @.@.@...| | :.=.{ ,.O.t t t t e e e e e q e q q 0 q 0 0 9 0 9 0 0 0 0 0 0 q 0 * % t e e 0 = O ",
"O t t t t ) z j t j t j t j t p > , Z V A v ` :.<.%.D t t t t e e e e e q e q q q q 0 0 0 0 9 0 9 0 0 0 0 q 0 0 * % e e q 0 = O ",
"O t t t t ) z t j 2 4 5 j t = X > V ` | ` A 2.....d t t t t e e e e e q e q q q q 0 q 0 0 9 0 9 0 0 0 0 q 0 q 0 * % e q 9 0 = O ",
"O t t t t ) x j 9 @ 1 5 t e = X n Z M ..2.=.| _ Z t t t t q t e e e q e q q q q 0 q 0 0 9 0 9 0 9 0 0 0 0 q q 0 * % e 0 = 0 = O ",
"O q 9 ( t ) z 0 = + 1 4 x q = c Z  .:.:.| _ B < Z t t t q t e e e e e q q q q 9 q 0 0 9 0 9 0 9 0 0 0 0 q 0 q 0 * % 0 = j 9 = O ",
"O = * 9 t ) t 9 0 + 1 4 j 0 = 2.=.o.X.V V c , < B t t e t e e e e e q q q q 0 q 0 0 9 0 9 0 9 0 9 0 0 q 0 q q 0 & % = & = 0 = O ",
"O = = 0 j ) q 9 J + 1 4 j 0 =...=.X.S S 3 5 , , B t e t e e e e e q q q q 0 q 0 0 0 0 9 0 9 0 9 0 0 0 0 q q q 0 & % = 9 0 0 = O ",
"O e e j z z q 9 z + 1 3 j <.$.| | B 6     3 > , V e t e e e e e q e q q 0 q 0 0 0 0 9 0 9 0 9 0 0 0 0 q 0 q q 0 * % = = q 0 = O ",
"O j z z J t q 9 z + 1 8 ,.} $...b X #     3 > > V t e e e e e q e q q 0 q 0 q 0 0 9 0 9 0 9 0 9 0 0 q 0 q q q 0 * % = 0 q 0 = O ",
"O z z J J t q 9 z + 7 >.<.#.$.A X X @ X X 3 > > V e e e e e q e q q q q 0 q 0 0 9 0 9 0 9 0 9 0 0 0 0 q q q q 0 & % 9 0 e 0 = O ",
"O z J J ) t q 9 D A =.>.W } <.c X X @ @ # 1 > > B e e e e q e q q q q 0 q 0 0 9 0 9 0 9 0 9 0 0 0 0 q 0 q q q 0 * % 9 0 e 0 = O ",
"O J ) ) ) t q g %.A ' X.%.$.K : X X X X X X > > n e e e q e q q q q 0 q 0 0 9 0 9 0 9 0 9 0 0 0 0 q 0 q q q q 0 * % 0 q t 0 * O ",
"O z t ) *.t q N &.` -.o.&.} y o X X X X X ; > > n e e q e q q q q 0 q 0 0 0 0 9 0 9 0 9 0 9 0 0 0 0 q q q q q 0 * % 0 = J 0 = O ",
"O t g x / l ! 3.<.$.| =.^ 0 = X O O ; ; : > > > n e e e q q q q 0 q 0 0 0 0 9 0 9 0 9 0 9 0 0 0 0 q 0 q q q q 0 * % = * = 0 = O ",
"O t ^ O.,.,.;.$.! p Y R t 0 9 X O . , : > X v > v e e q e q q 0 q 0 0 0 0 9 0 9 0 9 0 9 0 0 0 0 q 0 q q q q e 0 * % = = 0 0 = O ",
"O z ,.6.<.^ +.] N N H t t 0 = X X O : : : > > > v e q e q q 0 q 0 q 0 0 9 0 9 0 9 0 9 0 0 0 0 0 0 q q q q q q 0 * % 9 q e 0 = O ",
"O 1.9.,.( G &.[ ! d t t t 0 = X X X X X X X X X > q e q q q q 0 q 0 0 9 0 9 0 9 0 9 0 9 0 0 0 0 q 0 q q q q e 0 * % 0 q e 0 = O ",
"O @.1.) z ,.Q h t t t t t 0 = = 9 = = = = = = = q e q q q q 0 q 0 0 0 0 9 0 9 0 9 0 9 0 0 0 0 q 0 q q q q e q 0 & % q e t 0 = O ",
"O ( %.O.&.D s t t t t t t 0 0 9 0 0 0 0 0 0 0 e e q q q q 0 q 0 0 0 0 9 0 9 0 9 0 9 0 0 0 0 q 0 q q q q q q e 0 & % q e t 0 = O ",
"O / O.%.H j t t t t t t t t t t t e t e e e e e q q q q 0 q 0 0 0 0 9 0 9 0 9 0 9 0 0 0 0 0 0 q 0 q q q q e q 0 * % e e t 0 = O ",
"O ! %.) j ) t t t t t t t t t t e t e e e e e q q q q 0 q 0 0 0 0 9 0 9 0 9 0 9 0 9 0 0 0 0 q 0 q q q q q q e 0 * % q 9 / 0 = O ",
"O w - 9 j ) j t t t t t t t t q t e e e e e q q q q 0 q 0 0 0 0 9 0 9 0 9 0 9 0 9 0 0 0 0 q 0 q q q q q q e e 0 * % = * 9 0 = O ",
"O = = 0 j ) z t t t t t t t e t e t e e e q e q q 0 q 0 q 0 0 9 0 9 0 9 0 9 0 9 0 0 0 0 0 0 q 0 q q q q e q e 0 * % = = 0 0 = O ",
"O e e j j ) z t t t t t t q t e t e e e q e q q 0 q 0 q 0 0 0 0 9 0 9 0 9 0 9 0 0 0 0 0 0 q 0 q q q q q q e e 0 * % e e t 0 = O ",
"O j j j t ) z t t t t t e t e t e e e q e q q q q 0 q 0 0 0 0 9 0 9 0 9 0 9 0 9 0 0 0 0 q 0 q q q q q q e q e 0 * % e e t 0 = O ",
"O j j t t ) z t t t t e t e t e e e q e q q q q 0 q 0 0 0 0 9 0 9 0 9 0 9 0 9 0 0 0 0 0 0 q 0 q q q q q q e e 0 & % e e t 0 = O ",
"O t t t t ) z t t t e t e t e t e q e q q q q 0 q 0 0 0 0 9 0 9 0 9 0 9 0 9 0 0 0 0 0 0 q 0 q q q q q q e e e 0 & % e e t 0 * O ",
"O t t t t ) x t t q t e t q t e e e q q q q 0 q 0 0 0 0 9 0 9 0 9 0 9 0 9 0 0 0 0 0 0 q 0 q q q q q q e q e e 0 * % e t t 0 = O ",
"O q 0 ) t ) z t t t e t e t e e e q q q q 0 q 0 0 0 0 9 0 0 0 9 0 9 0 9 0 9 0 0 0 0 q 0 q 0 q q q q q q e e e 0 * % q 9 ) 0 = O ",
"O = * 9 t ) z t t e t e t e e e q q q q 0 q 0 0 0 0 0 0 0 0 9 0 9 0 9 0 9 0 0 0 0 0 0 q 0 q q q q e q e q e e e = % = * 9 0 = O ",
"O = = 9 t ) z z z z z z z z z z z z z z z z z z j j j t t t e e e e t t j j j j j j j j j j j d t t t t t t t t = % = = 0 0 = O ",
"O e e t t ) ) ) ) / ) / ) / ) ) ) ) ) ) ) ) ) ) J J J J z z j j j z z J J J J J J J J J J J J J J J J z z z z j 0 = e e t 0 = O ",
"O t t t t t t t t t t t t t e e e e q q q q q q q q 0 9 9 = 9 = = = 9 0 0 q q q q q q e e t t t t t t t t t t t t t t t t 0 = O ",
"O t t t t q 9 O.t t t t t q 9 ) e q q q q q = t q 0 9 9 = = * q = = 9 0 q q * t q q q e t q 9 ) t t t t t q 9 O.t t t t t 0 = O ",
"O t t t t = * 9 t t t t t = & 9 q q q q q = $ * 0 9 0 = = * $ % = 9 9 0 q = $ = q q e e t = & 9 t t t t t = & 9 t t t t t 9 = O ",
"; t t t t = = 9 t t t t t = = 0 q q q q q = = 0 0 9 9 = = * & = 0 9 0 q q = = 0 q q e t t = * 9 t t t t t = = 9 t t t t t 0 = ; ",
": : : : : : : : : ; : : : : : : : : : : : : : : : : : : : : : : : : : : : : : : : : : : : : : : : : : : : : : : : ; : : : : : : "
};
