/* XPM */
static char *f80d2186394f476cc8357a7b0e8e7498hk2NgWCgPACskObw[] = {
/* columns rows colors chars-per-pixel */
"64 64 132 2 ",
"   c black",
".  c #202020",
"X  c #2C2C2C",
"o  c gray22",
"O  c #404000",
"+  c #585400",
"@  c #706C00",
"#  c #004040",
"$  c #005858",
"%  c #006C6C",
"&  c #007070",
"*  c #007474",
"=  c #007878",
"-  c #007C7C",
";  c #484848",
":  c gray33",
">  c #517373",
",  c #646464",
"<  c gray44",
"1  c #7C7C7C",
"2  c #848400",
"3  c #9C9C00",
"4  c #B4AC00",
"5  c #CCC400",
"6  c #E4D800",
"7  c #FCF400",
"8  c #008484",
"9  c #008C8C",
"0  c #009898",
"q  c #00A4A4",
"w  c #20B0B0",
"e  c #20B4B4",
"r  c #518A8A",
"t  c #519494",
"y  c #519A9A",
"u  c #57BCBC",
"i  c #7FA2A2",
"p  c #48C0C0",
"a  c #69C6C6",
"s  c #74C8C8",
"d  c gray55",
"f  c #989898",
"g  c #88A9A9",
"h  c #9EABAB",
"j  c #9EB3B3",
"k  c gray66",
"l  c #A6B8B8",
"z  c #B4B4B4",
"x  c #82C4C4",
"c  c #82C7C7",
"v  c #86C6C6",
"b  c #8AC7C7",
"n  c #87CDCD",
"m  c #92CACA",
"M  c #92CDCD",
"N  c #9EC9C9",
"B  c #8CD0D0",
"V  c #90D1D1",
"C  c #96D2D2",
"Z  c #9AD4D4",
"A  c #9CDCDC",
"S  c #A6C2C2",
"D  c #A4C6C6",
"F  c #AFC2C2",
"G  c #A9C4C4",
"H  c #B8C1C1",
"J  c #BFCBCB",
"K  c #A0D0D0",
"L  c #A7D3D3",
"P  c #A7D5D5",
"I  c #ABD6D6",
"U  c #ADDBDB",
"Y  c #B0D6D6",
"T  c #BDD1D1",
"R  c #B1D9D9",
"E  c #B4D8D8",
"W  c #B4DADA",
"Q  c #B6DEDE",
"!  c #B9DCDC",
"~  c #BADCDC",
"^  c #BFDDDD",
"/  c #BEE1E1",
"(  c #B8E8E8",
")  c #C0C0C0",
"_  c #C0C7C7",
"`  c #C6D1D1",
"'  c #CED1D1",
"]  c #CAD5D5",
"[  c #CDD6D6",
"{  c #C1DFDF",
"}  c #CADADA",
"|  c #CFDDDD",
" . c #D0D0D0",
".. c #D1D9D9",
"X. c #D1DEDE",
"o. c #D6DDDD",
"O. c #C3E3E3",
"+. c #C5E2E2",
"@. c #C7E5E5",
"#. c #CBE3E3",
"$. c #CBE4E4",
"%. c #CDE5E5",
"&. c #CDE7E7",
"*. c #D0E7E7",
"=. c #DAE1E1",
"-. c #DAE5E5",
";. c #D0E9E9",
":. c #D5E8E8",
">. c #D5E9E9",
",. c #D5EBEB",
"<. c #D9EAEA",
"1. c #DCECEC",
"2. c #DDEEEE",
"3. c #D8F1F1",
"4. c #DEF3F3",
"5. c #D8F4F4",
"6. c #E1E9E9",
"7. c #E6EAEA",
"8. c #E0EEEE",
"9. c #E3EFEF",
"0. c #E9EBEB",
"q. c #E3F0F0",
"w. c #E4F1F1",
"e. c #E4F5F5",
"r. c #E8F3F3",
"t. c #EFF2F2",
"y. c #EAF7F7",
"u. c #EFF7F7",
"i. c #EDF9F9",
"p. c #F1F7F7",
"a. c #F5F9F9",
"s. c #FAFCFC",
/* pixels */
"o o o o o o o o o o o o o o o o o o o o o o o o o o o o o o o o o o o o o o o o o o o o o o o o o o o o o o o o o o o o o o o o ",
"o - = = = = = = = = = = = = = = = = = = = = = = = = = = = r i J ] i ` F = = = = = = = = = = = = = = = = = = = = = = = = = = = o ",
"o w 0 0 9 * & w 9 9 9 9 9 * & w 0 9 9 9 9 * & w 9 9 9 9 S ` o.+.6.w.X.S 9 * & w 9 9 9 9 9 * & w 9 9 9 9 9 * & w 9 9 9 9 9 9 = o ",
"o w w w w - # & w w w w w - # & w w w w w - # & w w w K >.` ' t.>.I a p w - # & p p p w w - # & w w w w w - # & w 0 9 9 0 9 = o ",
"o w w w w = - 9 w w w w w = - 9 w w w w w = - 9 w w b >.O.7.-.X.M p s A w = - 9 p p w w w = - 9 w w w w w = - 9 0 9 9 9 0 9 = o ",
"o w w w w 8 $ $ $ $ $ $ $ $ $ $ $ $ $ $ $ $ $ $ $ h ' _ 7.0.H > $ $ $ $ $ $ $ $ $ $ $ $ $ $ $ $ $ $ $ $ $ $ $ $ $ $ 9 0 0 9 = o ",
"o w w w w w - = & & & & & & & & & & & & & & % & j J l =...` % % & & & & & & & & & & & & & & & & & & & & & & & & & $ 9 0 0 9 = o ",
"o 0 8 ( w A w 9 9 9 9 9 9 9 9 9 9 9 9 9 9 9 9 g T } -.6.S y 9 9 9 9 9 9 9 9 9 9 9 9 9 9 9 9 9 9 9 9 9 9 9 9 9 9 & $ 0 8 ( 9 = o ",
"o - % 8 e ( u q q q q q q q q q q q q q q q D O.L 8.4.E u e e e e p e p e p e p e e e e w w w q q q q q 0 0 0 9 & $ - & 8 9 = o ",
"o = - 9 e ( a q q q q q q q q q q q q q q N m I :.<.{ u e e e e p e p e p e p e e e e w w w q q q q q 0 0 0 0 9 & $ = - 9 9 = o ",
"o q q w w ( s q q q q q q q q q q q q q K v >.2.8.I M e e p e p e p e p e p e e e e w w w q q q q q 0 q 0 0 0 9 & $ 0 q q 9 = o ",
"o w w w w ( s q q q q q q q q q q q x N v >.;.&.I x e e p e p e p e p e p e e e e w w w q w q q q 0 q 0 0 9 9 9 & $ 0 q q 9 = o ",
"o w w w w ( s q q q q q q q q w w x x b 1.>.+.^ x p e p e p e p e p e p e e e e w w w q w q q q 0 q 0 0 9 9 9 9 & $ 0 q w 9 = o ",
"o w w w w ( s q q q q q q w w w x x x 8.;.E @.s u e p e p e p e p e p e e e e w w w q w q q q 0 q 0 0 0 0 9 9 9 & $ q q w 9 = o ",
"o w w w w ( s q q q q w w w x Y x I 8.q.{ &.n p e p e p e p e p e p e e e e w w w q w q q q 0 q 0 0 0 0 9 9 9 9 & $ q w w 9 = o ",
"o 0 8 ( w ( s q q w w w w I x Y 2.8.p.&.L L p e p e p e p e p e p e e e e w w w q w q q q 0 q 0 0 0 0 9 9 9 9 9 & $ 0 8 ( 9 = o ",
"o - & 8 w ( s w w w w w x P W s.a.<.$.U P p e p e p e p e p e p e e e e w w w w w q q q q q 0 0 0 0 9 9 9 8 9 9 & $ - & 8 9 = o ",
"o = - 9 w ( s w w w w x x U p.w.^ ;.B Z p e p e p e p e p e p e e e e w e w w w q q q q q 0 0 0 0 9 9 9 9 8 9 9 & $ = - 9 9 = o ",
"o q q w w ( s w e w x I Y 9.e.#.&.&.I p e p e p e p e p e p e e e e w e w w w q q q q q 0 q 0 0 9 0 9 9 8 9 9 9 & $ q q w 9 = o ",
"o w w w w ( s w e c c ^ w.r.{ p.U I u w p e p e p e p e p e e e e w e w w w q q q q q 0 q 0 0 9 0 9 9 9 8 9 9 9 & $ q w w 9 = o ",
"o w w w w ( s e x x P ;.a.E i.Q / p e p e p e p e p e p e p e e w e w w w q q q q q 0 q 0 0 9 0 9 9 9 9 9 9 9 9 & $ q w w 9 = o ",
"o w w w w ( s x P O.+.a.w.;.+.P p e p e p e p e p e p e p e e w e w w w q w q q q 0 q 0 0 0 0 9 9 9 9 8 9 9 9 9 & $ w w w 9 = o ",
"o w w w e ( n ~ P <.y.U >.4.I p e p e p e p e p e p e p e e w e w w w q w q q q q q 0 0 0 0 9 9 9 9 8 9 9 9 9 9 & $ w w w 9 = o ",
"o 0 8 ( w ( @.~ P u.&.q.;.x p e p e p e p e p e p e p e e w e w w w q w q q q q q 0 0 0 0 9 0 9 9 8 9 9 9 9 0 9 & $ 0 8 ( 9 = o ",
"o - & 8 w 4.8.>.>.V $.>.u p e p e p e p e p e p e p e e w e w w w q w q q q q q 0 0 0 0 9 0 9 9 8 9 9 9 9 9 9 9 & $ - & 8 9 = o ",
"o * - 9 U q.$.&.Z ~ / e p e p e p e p e p e p e p e e w e w w w q w q q q q q 0 0 0 0 9 0 9 9 8 9 8 9 9 9 9 0 9 & $ = - 9 9 = o ",
"o q q K E 3.4.U ~ B e p e p e p e p e p e p e p e e w e w w w w w q q q q q 0 q 0 0 9 0 9 9 8 9 8 9 9 9 9 0 9 9 & $ q q q 9 = o ",
"o w x P #.i.;.~ a e p e p e p k  . .' '  . . .) ) w e w w w w w q q q q q 0 q 0 0 9 0 9 9 8 9 8 9 9 9 9 9 9 0 9 & $ w q q 9 = o ",
"o m $./ w.e.@.p e p e p e p w 1 , < < 1 1 d f k ) e w w w w w q q q q q 0 q 0 0 0 0 9 9 9 9 8 9 8 9 9 9 9 0 9 9 & $ q q 0 9 = o ",
"o ^ ^ 2.p.i.C e p 4 6 7 p w - X , o k < 1 :  .f z w w w w w q q q q q 0 q 0 0 0 0 9 0 9 9 8 9 8 9 9 9 9 0 9 0 9 & $ q 0 8 9 = o ",
"o I >.q.8.( s p = + 2 7 e q - X , , , < < 1 1 d z w w w w q w q q q 0 q 0 0 0 0 9 0 9 9 8 9 8 9 8 9 9 9 9 0 0 9 & $ q 9 - 9 = o ",
"o D 6.y.w ( s 8 * O 2 6 s 9 - X , , , , < < 1 1 z w w w q w q q q q q 0 0 0 0 9 0 9 9 8 9 8 9 8 9 9 9 9 0 9 0 9 & $ 9 = p 9 = o ",
"o g [ t e ( w 8 9 O 2 6 p 9 - X , , , , , < < 1 k w w q w q q q q q 0 0 0 0 9 0 9 9 8 9 8 9 8 9 8 9 9 0 9 0 0 9 & $ - % = 9 = o ",
"o = - 9 p ( 0 8 A O 2 6 p 9 - X : ; 2 5 5 7 < < k w q w q q q q q 0 0 0 0 9 0 9 9 9 9 8 9 8 9 8 9 9 9 9 0 0 0 9 & $ = - 9 9 = o ",
"o q q p s s 0 8 s O 2 5 p 9 - X ; X @     5 , < k q w q q q q q 0 q 0 0 9 0 9 9 9 9 8 9 8 9 8 9 9 9 9 0 9 0 0 9 & $ - - 0 9 = o ",
"o p s s A e 0 8 s O 2 5 p 9 - X o X @     5 , , k w q q q q q 0 q 0 0 9 0 9 0 9 9 8 9 8 9 8 9 8 9 9 0 9 0 0 0 9 & $ - 9 0 9 = o ",
"o s s A A w 0 8 s O 2 5 p 9 - X X X + X X 5 , , k q q q q q 0 q 0 0 0 0 9 0 9 9 8 9 8 9 8 9 8 9 9 9 9 0 0 0 0 9 & $ 8 9 q 9 = o ",
"o s A A ( w 0 8 p O 2 4 p 9 - X X X + + @ 2 , , k q q q q 0 q 0 0 0 0 9 0 9 9 8 9 8 9 8 9 8 9 9 9 9 0 9 0 0 0 9 & $ 8 9 q 9 = o ",
"o A ( ( ( w 0 8 p O 2 4 p 9 - X X X X X X X , , f q q q 0 q 0 0 0 0 9 0 9 9 8 9 8 9 8 9 8 9 9 9 9 0 9 0 0 0 0 9 & $ 9 0 w 9 = o ",
"o s e ( 5.w 0 8 p O 2 3 p 9 - X X X X X X ; , , f q q 0 q 0 0 0 0 9 0 9 9 9 9 8 9 8 9 8 9 8 9 9 9 9 0 0 0 0 0 9 & $ 9 - A 9 = o ",
"o w - e ( w 0 8 9 * O @ e 9 - X o o ; ; : , , , f q q q 0 0 0 0 9 0 9 9 9 9 8 9 8 9 8 9 8 9 9 9 9 0 9 0 0 0 0 9 & $ - & - 9 = o ",
"o w w s ( e 0 8 = = 8 e e 9 - X o . < : , X d , d q q 0 q 0 0 9 0 9 9 9 9 8 9 8 9 8 9 8 9 9 9 9 0 9 0 0 0 0 q 9 & $ = - 9 9 = o ",
"o s s ( A e 0 8 8 8 e e e 9 - X X o : : : , , , d q 0 q 0 0 9 0 9 0 9 9 8 9 8 9 8 9 8 9 9 9 9 9 9 0 0 0 0 0 0 9 & $ 8 0 q 9 = o ",
"o 5.( A A e 0 8 9 e e e w 9 - X X X X X X X X X , 0 q 0 0 0 0 9 0 9 9 8 9 8 9 8 9 8 9 8 9 9 9 9 0 9 0 0 0 0 q 9 & $ 9 0 q 9 = o ",
"o ( A A s e 0 0 e e e e w 9 - - - - - - - - - - 0 q 0 0 0 0 9 0 9 9 9 9 8 9 8 9 8 9 8 9 9 9 9 0 9 0 0 0 0 q 0 9 & $ 0 q w 9 = o ",
"o A A s s e 0 e e e e w w 9 9 9 9 9 9 9 9 9 9 q q 0 0 0 0 9 0 9 9 9 9 8 9 8 9 8 9 8 9 9 9 9 0 9 0 0 0 0 0 0 q 9 & $ 0 q w 9 = o ",
"o A s p p p w e e e w w w w w w w q w q q q q q 0 0 0 0 9 0 9 9 9 9 8 9 8 9 8 9 8 9 9 9 9 9 9 0 9 0 0 0 0 q 0 9 & $ q q w 9 = o ",
"o 0 8 ( p ( e e e w w w w w w w q w q q q q q 0 0 0 0 9 0 9 9 9 9 8 9 8 9 8 9 8 9 8 9 9 9 9 0 9 0 0 0 0 0 0 q 9 & $ 0 8 ( 9 = o ",
"o - & 8 p ( p e w w w w w w w q w q q q q q 0 0 0 0 9 0 9 9 9 9 8 9 8 9 8 9 8 9 8 9 9 9 9 0 9 0 0 0 0 0 0 q q 9 & $ - & 8 9 = o ",
"o = - 9 p ( s w w w w w w w q w q w q q q 0 q 0 0 9 0 9 0 9 9 8 9 8 9 8 9 8 9 8 9 9 9 9 9 9 0 9 0 0 0 0 q 0 q 9 & $ = - 9 9 = o ",
"o q q p p ( s w w w w w w q w q w q q q 0 q 0 0 9 0 9 0 9 9 9 9 8 9 8 9 8 9 8 9 9 9 9 9 9 0 9 0 0 0 0 0 0 q q 9 & $ q q w 9 = o ",
"o p p p e ( s w w w w w q w q w q q q 0 q 0 0 0 0 9 0 9 9 9 9 8 9 8 9 8 9 8 9 8 9 9 9 9 0 9 0 0 0 0 0 0 q 0 q 9 & $ q q w 9 = o ",
"o p p e e ( s w w w w q w q w q q q 0 q 0 0 0 0 9 0 9 9 9 9 8 9 8 9 8 9 8 9 8 9 9 9 9 9 9 0 9 0 0 0 0 0 0 q q 9 & $ q q w 9 = o ",
"o e e e e ( s w w w q w q w q w q 0 q 0 0 0 0 9 0 9 9 9 9 8 9 8 9 8 9 8 9 8 9 9 9 9 9 9 0 9 0 0 0 0 0 0 q q q 9 & $ q q w 9 = o ",
"o e e e e ( s w w q w q w q w q q q 0 0 0 0 9 0 9 9 9 9 8 9 8 9 8 9 8 9 8 9 9 9 9 9 9 0 9 0 0 0 0 0 0 q 0 q q 9 & $ q w w 9 = o ",
"o 0 8 ( e ( s w w w q w q w q q q 0 0 0 0 9 0 9 9 9 9 8 9 9 9 8 9 8 9 8 9 8 9 9 9 9 0 9 0 9 0 0 0 0 0 0 q q q 9 & $ 0 8 ( 9 = o ",
"o - & 8 e ( s w w q w q w q q q 0 0 0 0 9 0 9 9 9 9 9 9 9 9 8 9 8 9 8 9 8 9 9 9 9 9 9 0 9 0 0 0 0 0 0 q 0 q q q = $ - & 8 9 = o ",
"o = - 9 w ( s s s s s s s s s s s s s s s s s s p p p e e w q q q q w e p p p p p p p p p p p p e e e e e e e e - $ = - 9 9 = o ",
"o q q w w ( ( ( ( ( ( ( ( ( ( ( ( ( ( ( ( ( ( ( A A A A s s p p p s s A A A A A A A A A A A A A A A A s s s s p 9 - q q w 9 = o ",
"o w w w w w w w w w w w w w q q q q 0 0 0 0 0 0 0 0 9 8 8 - - - - - 8 9 9 0 0 0 0 0 0 q q w w w w w w w w w w w w w w w w 9 = o ",
"o w w w w 0 8 ( w w w w w 0 8 ( q 0 0 0 0 0 & e 0 9 8 8 - = & 0 - - 8 9 0 0 & e 0 0 0 q w 0 8 ( w w w w w 0 8 ( w w w w w 9 = o ",
"o w w w w - & 8 w w w w w - & 8 0 0 0 0 0 - # & 9 8 8 - - & # $ - 8 8 9 0 - # & 0 0 q q w - & 8 w w w w w - & 8 w w w w w 9 = o ",
"; w w w w = - 9 w w w w w = - 9 0 0 0 0 0 = - 9 9 8 8 - - & & = 8 8 9 0 0 = - 9 0 0 q w w = - 9 w w w w w = - 9 w w w w w 9 = ; ",
": : : : : : : : : : : : : : : : : : : : : : : : : : : : : : : : : : : : : : : : : : : : : : : : : : : : : : : : : : : : : : : : "
};
