/* XPM */
static char *add59608d98642b8c4dd85f6a8df0188raqT4Prw1l19D6eR[] = {
/* columns rows colors chars-per-pixel */
"64 64 148 2 ",
"   c black",
".  c #202020",
"X  c #2C2C2C",
"o  c gray22",
"O  c #404000",
"+  c #585400",
"@  c #706C00",
"#  c #004040",
"$  c #005858",
"%  c #006C6C",
"&  c #007070",
"*  c #007474",
"=  c #007878",
"-  c #007C7C",
";  c #484848",
":  c gray33",
">  c #646464",
",  c gray44",
"<  c #7C7C7C",
"1  c #848400",
"2  c #9C9C00",
"3  c #B4AC00",
"4  c #CCC400",
"5  c #E4D800",
"6  c #FCF400",
"7  c #008484",
"8  c #008C8C",
"9  c #009898",
"0  c #00A4A4",
"q  c #20B0B0",
"w  c #20B4B4",
"e  c #519494",
"r  c #519A9A",
"t  c #7F9292",
"y  c #4CA3A3",
"u  c #51A4A4",
"i  c #51AEAE",
"p  c #53B7B7",
"a  c #57B8B8",
"s  c #6FA6A6",
"d  c #7DA1A1",
"f  c #7FA9A9",
"g  c #7FADAD",
"h  c #7FB5B5",
"j  c #48C0C0",
"k  c #74C8C8",
"l  c gray55",
"z  c #989898",
"x  c #8EABAB",
"c  c #90ACAC",
"v  c #89B2B2",
"b  c #8EBBBB",
"n  c #90B2B2",
"m  c #90B6B6",
"M  c #9EB6B6",
"N  c #9EBABA",
"B  c #9EBEBE",
"V  c gray66",
"C  c #A6BFBF",
"Z  c #AEB8B8",
"A  c #B4B4B4",
"S  c #82C4C4",
"D  c #87CDCD",
"F  c #9BC2C2",
"G  c #9FC4C4",
"H  c #8CD0D0",
"J  c #9CDCDC",
"K  c #A6C0C0",
"L  c #A6C2C2",
"P  c #AEC2C2",
"I  c #A8C4C4",
"U  c #A9C4C4",
"Y  c #AEC5C5",
"T  c #A6C8C8",
"R  c #A6CDCD",
"E  c #AEC8C8",
"W  c #AFCDCD",
"Q  c #B2C7C7",
"!  c #B7C7C7",
"~  c #B8C1C1",
"^  c #B0C9C9",
"/  c #B7CBCB",
"(  c #B7CDCD",
")  c #B8CCCC",
"_  c #B8CECE",
"`  c #BDCFCF",
"'  c #A0D2D2",
"]  c #AED1D1",
"[  c #A7D8D8",
"{  c #B0D6D6",
"}  c #BED1D1",
"|  c #B8D6D6",
" . c #BED5D5",
".. c #B4DDDD",
"X. c #B8E8E8",
"o. c #C0C0C0",
"O. c #C3CECE",
"+. c #C0D3D3",
"@. c #C6D7D7",
"#. c #C9D7D7",
"$. c #C7D8D8",
"%. c #C0DFDF",
"&. c #CCD9D9",
"*. c #CEDADA",
"=. c #C9DCDC",
"-. c #CFDDDD",
";. c #D0D0D0",
":. c #D2DADA",
">. c #D4D8D8",
",. c #D7DBDB",
"<. c #D1DFDF",
"1. c #D6DEDE",
"2. c #D2E0E0",
"3. c #D6E0E0",
"4. c #D2E4E4",
"5. c #D7E5E5",
"6. c #D8E3E3",
"7. c #DCE2E2",
"8. c #DAE5E5",
"9. c #DFE5E5",
"0. c #D7EFEF",
"q. c #DCE8E8",
"w. c #DFE8E8",
"e. c #D4F0F0",
"r. c #D7F1F1",
"t. c #D8F4F4",
"y. c #E0E7E7",
"u. c #E6E7E7",
"i. c #E0E9E9",
"p. c #E5EBEB",
"a. c #E1EDED",
"s. c #E5ECEC",
"d. c #E8ECEC",
"f. c #E9EDED",
"g. c #E9EFEF",
"h. c #E3F3F3",
"j. c #E9F0F0",
"k. c #EAF3F3",
"l. c #EEF1F1",
"z. c #EBF5F5",
"x. c #ECF4F4",
"c. c #F1F3F3",
"v. c #F3F5F5",
"b. c #F0F7F7",
"n. c #F3FBFB",
"m. c #F6F8F8",
"M. c #F9FAFA",
"N. c #FAFCFC",
/* pixels */
"o o o o o o o o o o o o o o o o o o o o o o o o o o o o o o o o o o o o o o o o o o o o o o o o o o o o o o o o o o o o o o o o ",
"o - = = = = = = = = = = = = = = = = = = = = = = = = = = = = = = = = = = = = = = = = = = = = = = = = = = = = = = = = = = = = = o ",
"o q 9 9 8 * & q 8 8 8 8 8 * & q 9 8 8 8 8 * & q 8 8 8 8 8 * & q 8 8 8 8 8 * & q 8 8 8 8 8 * & q 8 8 8 8 8 * & q 8 8 8 8 8 8 = o ",
"o q q q q - # & q q q q q - # & q q q q q - # & q q q q q - # & w w j j q - # & j j j q q - # & q q q q q - # & q 9 8 8 9 8 = o ",
"o q q q q = - 8 q q q q q = - 8 q q q q q = - 8 q q q q q = - 8 w j k J q = - 8 j j q q q = - 8 q q q q q = - 8 9 8 8 8 9 8 = o ",
"o q q q q 7 $ $ $ $ $ $ $ $ $ $ $ $ $ $ $ $ $ $ $ $ $ $ $ $ $ $ $ $ $ $ $ $ $ $ $ $ $ $ $ $ $ $ $ $ $ $ $ $ $ $ $ $ 8 9 9 8 = o ",
"o q q q q q - = & & & & & & & & & & & & & & & & & & & & & & & & & & & & & & & & & & & & & & & & & & & & & & & & & $ 8 9 9 8 = o ",
"o 9 7 X.q J q 8 8 8 8 8 8 8 8 8 8 8 8 8 8 8 8 8 8 8 8 8 8 8 8 8 8 8 8 8 8 8 8 8 8 8 8 8 8 8 8 8 8 8 8 8 8 8 8 8 & $ 9 7 X.8 = o ",
"o - & 7 q X.j 0 0 0 0 0 0 0 0 0 0 0 0 0 0 0 0 0 q q q q w w w w w j w j w j w j w w w w q q q 0 0 0 0 0 9 9 9 8 & $ - & 7 8 = o ",
"o = - 8 q X.k 0 0 0 0 0 0 0 0 0 0 0 0 0 0 0 q q q q q w w w w w j w j w j w j w w w w q q q 0 0 0 0 0 9 9 9 9 8 & $ = - 8 8 = o ",
"o 0 0 q q X.k 0 0 0 0 0 0 0 0 0 0 0 0 0 q q q q q w w w w j w j w j w j w j w w w w q q q 0 0 0 0 0 9 0 9 9 9 8 & $ 9 0 0 8 = o ",
"o q q q q X.k 0 0 0 0 0 0 0 0 0 0 0 q q q q q w w w w w j w j w j w j w j w w w w q q q 0 q 0 0 0 9 0 9 9 8 8 8 & $ 9 0 0 8 = o ",
"o q q q q X.k 0 0 0 0 0 0 0 0 q q q q q q w w w w j w j w j w j w j w j w w w w q q q 0 q 0 0 0 9 0 9 9 8 8 8 8 & $ 9 0 q 8 = o ",
"o q q q q X.k 0 0 0 0 0 0 q q q q q q w w w w w j w j w j w j w j w j w w w w q q q 0 q 0 0 0 9 0 9 9 9 9 8 8 8 & $ 0 0 q 8 = o ",
"o q q q q X.k 0 0 0 0 q q q q q q w w w w w w j w j w j w j w j w j w w w w q q q 0 q 0 0 0 9 0 9 9 9 9 8 8 8 8 & $ 0 q q 8 = o ",
"o 9 7 X.q X.k 0 0 q q q q q q q w w w w w w j w j w j w j w j w j w w w w q q q 0 q 0 0 0 9 0 9 9 9 9 8 8 8 8 8 & $ 9 7 X.8 = o ",
"o - & 7 q X.k q q q q q q q w w w w w j w j w j w j w j w j w j w w w w q q q q q 0 0 0 0 0 9 9 9 9 8 8 8 7 8 8 & $ - & 7 8 = o ",
"o = - 8 q X.k q q q q q w w w w w w j w j w j w j w j w j w j w w w w q w q q q 0 0 0 0 0 9 9 9 9 8 8 8 8 7 8 8 & $ = - 8 8 = o ",
"o 0 0 q q X.k q q q w w w w w w w j w j w j w j w j w j w j w w w w q w q q q 0 0 0 0 0 9 0 9 9 8 9 8 8 7 8 8 8 & $ 0 0 q 8 = o ",
"o q q q q X.k q w w w w w w w w j w j w j w j w j w j w j w w w w q w q q q 0 0 0 0 0 9 0 9 9 8 9 8 8 8 7 8 8 8 & $ 0 q q 8 = o ",
"o q q q q X.k w w w w w w w w j w j w j w j w j w j w j w j w w q w q q q 0 0 0 0 0 9 0 9 9 8 9 8 8 8 8 8 8 8 8 % $ 0 q p $.M o ",
"o q q q q X.k w w w w w j w j w j w j w j w j w j w j w j w w q w q q q 0 q 0 0 0 9 0 9 9 9 9 8 8 8 8 7 8 8 8 8 & $ q a k.i.x o ",
"o q q q q X.k w w w w j w j w j w j w j w j w j w j w j w w q w q q q 0 q 0 0 0 0 0 9 9 9 9 8 8 8 8 7 8 8 8 8 8 & $ S b.x.8.d o ",
"o 9 7 X.q X.k w w w j w j w j w j w j w j w j w j w j w w q w q q q 0 q 0 0 0 0 0 9 9 9 9 8 9 8 8 7 8 8 8 8 9 8 & t  .6.n._ d o ",
"o - & 7 q X.k w w j w j w j w j w j w j w j w j w j w w q w q q q 0 q 0 0 0 0 0 9 9 9 9 8 9 8 8 7 8 8 8 8 8 8 8 d l P p.i.p.! o ",
"o = - 8 q X.k w j w j w j w j w j w j w j w j w j w w q w q q q 0 q 0 0 0 0 0 9 9 9 9 8 9 8 8 7 8 7 8 8 8 8 9 B ` <.9.g.<.i.= o ",
"o 0 0 q q X.k j w j w j w j w j w j w j w j w j w w q w q q q q q 0 0 0 0 0 9 0 9 9 8 9 8 8 7 8 7 8 8 8 8 9 I -.1.c.a. .] 8 = o ",
"o q q q q X.k w j w j w j w j V ;.;.;.;.;.;.;.o.o.q w q q q q q 0 0 0 0 0 9 0 9 9 8 9 8 8 7 8 7 8 8 8 8 8 B 9.} M.>.{ | i 8 = o ",
"o q q w w X.k j w j w j w j q < > , , < < l z V o.w q q q q q 0 0 0 0 0 9 0 9 9 9 9 8 8 8 8 7 8 7 8 8 8 g W 4.b.7.~ 4.R 9 8 = o ",
"o q w w w X.k w j 3 5 6 j q - X > o V , < : ;.z A q q q q q 0 0 0 0 0 9 0 9 9 9 9 8 9 8 8 7 8 7 8 8 8 L v s.k.<.:.Z 0 9 7 8 = o ",
"o w w w w X.k j = + 1 6 w 0 - X > > > , , < < l A q q q q 0 q 0 0 0 9 0 9 9 9 9 8 9 8 8 7 8 7 8 7 8 B ( ^ g.=.@.O.$ 0 8 - 8 = o ",
"o 9 7 X.w X.k 7 * O 1 5 k 8 - X > > > > , , < < A q q q 0 q 0 0 0 0 0 9 9 9 9 8 9 8 8 7 8 7 8 7 8 _ i.B b.i.i.3.x $ 8 = j 8 = o ",
"o - & 7 w X.q 7 8 O 1 5 j 8 - X > > > > > , , < V q q 0 q 0 0 0 0 0 9 9 9 9 8 9 8 8 7 8 7 8 7 f 1.I I l.m.-.-.g & $ - % = 8 = o ",
"o = - 8 j X.9 7 J O 1 5 j 8 - X : ; 1 4 4 6 , , V q 0 q 0 0 0 0 0 9 9 9 9 8 9 8 8 8 8 7 8 7 C _ -.2.i.a.=.T h 8 & $ = - 8 8 = o ",
"o 0 0 j k k 9 7 k O 1 4 j 8 - X ; X @     4 > , V 0 q 0 0 0 0 0 9 0 9 9 8 9 8 8 8 8 7 8 e Y ( I <.+.z.3.^ T 9 8 & $ - - 9 8 = o ",
"o j k k J w 9 7 k O 1 4 j 8 - X o X @     4 > > V q 0 0 0 0 0 9 0 9 9 8 9 8 9 8 8 7 8 7 B / } <.m =.q.y.h 9 9 8 & $ - 8 9 8 = o ",
"o k k J J q 9 7 k O 1 4 j 8 - X X X + X X 4 > > V 0 0 0 0 0 9 0 9 9 9 9 8 9 8 8 7 8 7 _ Y @.s.v 1.s.p.9 9 9 9 8 & $ 7 8 0 8 = o ",
"o k J J X.q 9 7 j O 1 3 j 8 - X X X + + @ 1 > > V 0 0 0 0 9 0 9 9 9 9 8 9 8 8 7 8 7 ( #.8.p.I =.2.( 9 8 9 9 9 8 & $ 7 8 0 8 = o ",
"o J X.X.X.q 9 7 j O 1 3 j 8 - X X X X X X X > > z 0 0 0 9 0 9 9 9 9 8 9 8 8 7 8 7 ) _ s.g.g.*.1.g 9 8 9 9 9 9 8 & $ 8 9 q 8 = o ",
"o k w X.t.q 9 7 j O 1 2 j 8 - X X X X X X ; > > z 0 0 9 0 9 9 9 9 8 9 8 8 8 8 7 I <.l.*.*.y._ N 8 8 9 9 9 9 9 8 & $ 8 - J 8 = o ",
"o q - w X.q 9 7 8 * O @ w 8 - X o o ; ; : > > > z 0 0 0 9 9 9 9 8 9 8 8 8 8 7 ) 9.+.C #.` I v 8 8 9 8 9 9 9 9 8 & $ - & - 8 = o ",
"o q q k X.w 9 7 = = 7 w w 8 - X o . , : > X l > l 0 0 9 0 9 9 8 9 8 8 8 8 7 @.*.1.v p.=.} B 8 8 9 8 9 9 9 9 0 8 & $ = - 8 8 = o ",
"o k k X.J w 9 7 7 7 w w w 8 - X X o : : : > > > l 0 9 0 9 9 8 9 8 9 8 8 7 L 3.1.) g.:.=.f 8 8 8 8 9 9 9 9 9 9 8 & $ 7 9 0 8 = o ",
"o t.X.J J w 9 7 8 w w w q 8 - X X X X X X X X X > 9 0 9 9 9 9 8 9 8 8 7 v ^ =.#.1.y.<.e 8 8 8 8 9 8 9 9 9 9 0 8 & $ 8 9 0 8 = o ",
"o X.J J k w 9 9 w w w w q 8 - - - - - - - - - - 9 0 9 9 9 9 8 9 8 8 8 f f 9.L g.b.v 7 8 8 8 8 9 8 9 9 9 9 0 9 8 & $ 9 0 q 8 = o ",
"o J J k k w 9 w w w w q q 8 8 8 8 8 8 8 8 8 8 0 0 9 9 9 9 8 9 8 8 8 v _ z.9.8.M.L 7 8 8 8 8 9 8 9 9 9 9 9 9 0 8 & $ 9 0 q 8 = o ",
"o J k j j j q w w w q q q q q q q 0 q 0 0 0 0 0 9 9 9 9 8 9 8 8 8 C _ 6.*.=.l.v 7 8 8 8 8 8 8 9 8 9 9 9 9 0 9 8 & $ 0 0 q 8 = o ",
"o 9 7 X.j X.w w w q q q q q q q 0 q 0 0 0 0 0 9 9 9 9 8 9 8 8 8 v L L v ( 1.g 7 8 7 8 8 8 8 9 8 9 9 9 9 9 9 0 8 & $ 9 7 X.8 = o ",
"o - & 7 j X.j w q q q q q q q 0 q 0 0 0 0 0 9 9 9 9 8 9 8 8 8 r +.+.` =.Y 3.7 8 7 8 8 8 8 9 8 9 9 9 9 9 9 0 0 8 & $ - & 7 8 = o ",
"o = - 8 j X.k q q q q q q q 0 q 0 q 0 0 0 9 0 9 9 8 9 8 9 8 8 l.6.f 9.C } e 8 7 8 8 8 8 8 8 9 8 9 9 9 9 0 9 0 8 & $ = - 8 8 = o ",
"o 0 0 j j X.k q q q q q q 0 q 0 q 0 0 0 9 0 9 9 8 9 8 9 8 8 =.3.C p.i.=.f 8 7 8 8 8 8 8 8 9 8 9 9 9 9 9 9 0 0 8 & $ 0 0 q 8 = o ",
"o j j j w X.k q q q q q 0 q 0 q 0 0 0 9 0 9 9 9 9 8 9 8 8 _ @.e g.b.I N 8 7 8 7 8 8 8 8 9 8 9 9 9 9 9 9 0 9 0 8 & $ 0 0 q 8 = o ",
"o j j w w X.k q q q q 0 q 0 q 0 0 0 9 0 9 9 9 9 8 9 8 8 P L C p.c.^ Y 8 7 8 7 8 8 8 8 8 8 9 8 9 9 9 9 9 9 0 0 8 & $ 0 0 q 8 = o ",
"o w w w w X.k q q q 0 q 0 q 0 q 0 9 0 9 9 9 9 8 9 8 8 v *.v =.m.p.P 8 7 8 7 8 8 8 8 8 8 9 8 9 9 9 9 9 9 0 0 0 8 & $ 0 0 q 8 = o ",
"o w w w w X.k q q 0 q 0 q 0 q 0 0 0 9 9 9 9 8 9 8 8 I #.n 8.m.+.Y 8 7 8 7 8 8 8 8 8 8 9 8 9 9 9 9 9 9 0 9 0 0 8 & $ 0 q q 8 = o ",
"o 9 7 X.w X.k q q q 0 q 0 q 0 0 0 9 9 9 9 8 9 8 8 L *.) l.M.<.Y 8 7 8 7 8 7 8 8 8 8 9 8 9 8 9 9 9 9 9 9 0 0 0 8 & $ 9 7 X.8 = o ",
"o - & 7 w X.k q q 0 q 0 q 0 0 0 9 9 9 9 8 9 8 8 E I v 5.b.+.Y 8 7 8 7 8 7 8 8 8 8 8 8 9 8 9 9 9 9 9 9 0 9 0 0 0 = $ - & 7 8 = o ",
"o = - 8 q X.k k k k k k k k k k k k k k k k H X.H [ h.z.' { 0 0 0 0 q w j j j j j j j j j j j j w w w w w w w w - $ = - 8 8 = o ",
"o 0 0 q q X.X.X.X.X.X.X.X.X.X.X.X.X.X.X.X.X.e.e.h.0.z.J ..D j j p k k J J J J J J J J J J J J J J J J k k k k j 8 - 0 0 q 8 = o ",
"o q q q q q q q q q q q q q 0 0 0 0 9 9 9 W h  .s.i.f f v = - - 7 - 7 8 8 9 9 9 9 9 9 0 0 q q q q q q q q q q q q q q q q 8 = o ",
"o q q q q 9 7 X.q q q q q 9 7 X.0 9 9 9 F T g.%.b.s f f - = & 9 - - 7 8 9 9 & w 9 9 9 0 q 9 7 X.q q q q q 9 7 X.q q q q q 8 = o ",
"o q q q q - & 7 q q q q q - & 7 9 9 u G F >.u.g.m L f = - & # $ - 7 7 8 9 - # & 9 9 0 0 q - & 7 q q q q q - & 7 q q q q q 8 = o ",
"; q q q q = - 8 q q q q q = - 8 9 v v y b c C v F f 7 - - & & = 7 7 8 9 9 = - 8 9 9 0 q q = - 8 q q q q q = - 8 q q q q q 8 = ; ",
": : : : : : : : : : : : : : : : : : : : : : : : : : : : : : : : : : : : : : : : : : : : : : : : : : : : : : : : : : : : : : : : "
};
