/* XPM */
static char *dac6370fa2884e6cbdb8a5accf8339b2J9CZboFa1whLdihu[] = {
/* columns rows colors chars-per-pixel */
"64 64 109 2 ",
"   c black",
".  c #202020",
"X  c #2C2C2C",
"o  c gray22",
"O  c #404000",
"+  c #585400",
"@  c #706C00",
"#  c #004040",
"$  c #005858",
"%  c #006C6C",
"&  c #007070",
"*  c #007A7A",
"=  c #484848",
"-  c gray33",
";  c gray36",
":  c #646464",
">  c gray44",
",  c #7C7C7C",
"<  c #848400",
"1  c #9C9C00",
"2  c #B4AC00",
"3  c #CCC400",
"4  c #E4D800",
"5  c #FCF400",
"6  c #008484",
"7  c #008C8C",
"8  c #009898",
"9  c #00A4A4",
"0  c #20B2B2",
"q  c #518D8D",
"w  c #519A9A",
"e  c #5C9E9E",
"r  c #6F8787",
"t  c #619191",
"y  c #739B9B",
"u  c #51A4A4",
"i  c #5CA7A7",
"p  c #51AEAE",
"a  c #57B8B8",
"s  c #6FA6A6",
"d  c #7FADAD",
"f  c #6FB7B7",
"g  c #7FB5B5",
"h  c #7FBCBC",
"j  c #48C0C0",
"k  c #74C8C8",
"l  c gray55",
"z  c #989898",
"x  c #88A7A7",
"c  c #9DAAAA",
"v  c #90B6B6",
"b  c #90BCBC",
"n  c #9EBEBE",
"m  c #A9A9A9",
"M  c #A4BABA",
"N  c #ABBEBE",
"B  c #B4B4B4",
"V  c #82C4C4",
"C  c #92C2C2",
"Z  c #9EC3C3",
"A  c #92CACA",
"S  c #9ECACA",
"D  c #96D2D2",
"F  c #9CDCDC",
"G  c #A5C3C3",
"H  c #A9C4C4",
"J  c #A6CACA",
"K  c #ABCBCB",
"L  c #B2C6C6",
"P  c #B4CCCC",
"I  c #BACDCD",
"U  c #A7D3D3",
"Y  c #AED2D2",
"T  c #B3D4D4",
"R  c #B9D4D4",
"E  c #BCDCDC",
"W  c #BCE0E0",
"Q  c #B8E8E8",
"!  c #C0C0C0",
"~  c #C3CACA",
"^  c #C3D5D5",
"/  c #CED7D7",
"(  c #C4D9D9",
")  c #CCDDDD",
"_  c #D0D0D0",
"`  c #D4DEDE",
"'  c #D8DFDF",
"]  c #C6E2E2",
"[  c #CCE1E1",
"{  c #CAEDED",
"}  c #D5E4E4",
"|  c #DBE6E6",
" . c #D0E8E8",
".. c #DCEAEA",
"X. c #DAF4F4",
"o. c #E1E6E6",
"O. c #E3EDED",
"+. c #EAEDED",
"@. c #E5F1F1",
"#. c #ECF3F3",
"$. c #F1F5F5",
"%. c #F0F7F7",
"&. c #F4F4F4",
"*. c #F3F8F8",
"=. c #F3FBFB",
"-. c #F7F9F9",
";. c #F9FBFB",
":. c #F9FCFC",
">. c #FCFDFD",
/* pixels */
"o o o o o o o o o o o o o o o o o o o o o o o o o o o o o o o o o o o o o o o o o o o o o o o o o o o o o o o o o o o o o o o o ",
"o * * * * * * & * * * * * * * & * * & * * * * * * * * * * * * & * * * * * * * * * * * * * * * * * * * & * * * & * * & * * t M o ",
"o 0 8 8 7 * & 0 7 7 7 6 7 * % 0 8 7 7 6 7 & % 0 7 7 6 7 7 * & 0 7 7 7 7 7 * % 0 7 7 7 7 7 & & 0 7 7 7 7 7 * & 0 7 7 7 7 7 H L o ",
"o 0 0 0 0 * # % 0 0 0 0 0 * # % 0 0 0 0 0 * # & 0 0 0 0 0 * # & 0 0 j j 0 * # % j j a 0 0 * # & 0 0 0 0 0 * # & 0 8 7 7 b ) N o ",
"o 0 0 0 0 & * 7 0 0 0 0 0 * * 7 0 0 0 0 0 * * 7 0 0 0 0 0 * * 7 0 j k F 0 & * 7 j j 0 0 0 * * 7 0 0 0 0 0 * * 7 8 7 7 v ) K M o ",
"o 0 0 0 0 6 $ $ $ $ $ $ $ $ $ $ $ $ $ $ $ $ $ $ $ $ $ $ $ $ $ $ $ $ $ $ $ $ $ $ $ $ $ $ $ $ $ $ $ $ $ $ $ $ $ $ $ $ v O.^ | y o ",
"o 0 0 0 0 0 * * % % & & & & % & & & & & & & * & % % % & % % & & & & & & & & & & & & & & % & % & % & % & % & & & & l ^ ) ) #.x o ",
"o 8 * Q 0 D 0 7 7 7 7 7 7 7 7 7 7 7 7 7 7 7 8 8 7 7 7 7 7 7 7 7 7 7 7 7 7 7 7 7 7 7 7 7 7 7 7 7 6 7 7 7 7 7 7 7 & I ) L =.^ & o ",
"o * % 6 0 Q a 9 9 9 9 9 9 9 9 9 9 9 9 9 9 9 9 9 0 0 0 0 0 0 0 0 0 j 0 j 0 j 0 j 0 0 0 0 0 0 0 9 9 9 9 9 8 8 8 w o.' N / ` 7 * o ",
"o * * 7 0 Q k 9 9 9 9 9 9 9 9 9 9 9 9 9 9 9 0 0 0 0 0 0 0 0 0 0 j 0 j 0 j 0 j 0 0 0 0 0 0 0 9 9 9 9 9 8 8 8 v | o.c ' } 7 7 * o ",
"o 9 9 0 0 Q k 9 9 9 9 9 9 9 9 9 0 0 0 0 0 0 0 0 0 0 0 0 0 j j j 0 j 0 j 0 j 0 0 0 0 0 0 0 9 9 9 9 9 8 9 8 P #.R ' +.G 9 9 7 * o ",
"o 0 0 0 0 Q k 9 9 9 9 9 9 9 9 9 0 0 0 0 0 0 0 0 0 0 0 0 j 0 j 0 j 0 j 0 j 0 0 0 0 0 0 0 9 0 9 9 9 8 9 8 Z o.#.o.;.+.8 9 9 7 * o ",
"o 0 0 0 0 W k 9 9 9 9 9 9 9 9 0 0 0 0 0 0 0 0 0 0 j 0 j 0 j 0 j 0 j 0 j 0 0 0 0 0 0 0 9 0 9 9 9 8 9 8 R H | d | &.r 8 9 0 7 * o ",
"o 0 0 0 0 Q k 9 9 9 9 8 9 0 0 0 0 0 0 0 0 0 0 0 j 0 j 0 j 0 j 0 j 0 j 0 0 0 0 0 0 0 9 0 9 9 9 8 9 8 R ) | n ) &.N $ 9 9 0 6 * o ",
"o 0 0 0 0 Q k 9 9 9 8 0 0 0 0 0 0 0 0 0 0 j 0 j 0 j 0 j 0 j 0 j 0 j 0 0 0 0 0 0 0 9 0 9 9 9 9 9 8 b } o.^ o.+.H % $ 9 0 0 7 * o ",
"o 8 6 W 0 Q k 9 9 0 0 0 0 0 0 0 0 0 0 0 0 0 j 0 j 0 j 0 j 0 j 0 j 0 0 0 j 0 0 0 0 0 9 9 9 9 9 9 g | #.} | ;.K 7 & $ 8 6 Q 6 * o ",
"o * % 6 0 Q k 0 0 0 0 0 0 0 0 0 0 0 0 j 0 j 0 j 0 j 0 j 0 j 0 j 0 0 0 0 0 0 0 0 0 9 9 9 9 9 8 u } $.o...:.d 7 7 & $ * & 6 7 * o ",
"o * * 6 0 Q k 0 0 0 0 0 0 0 0 0 0 0 j 0 j 0 j 0 j 0 j 0 j 0 j 0 0 0 0 0 0 0 0 0 9 9 9 9 9 8 8 } #.#.| -.d 6 7 7 & $ * * 7 7 * o ",
"o 9 9 0 0 Q k 0 0 0 0 0 0 0 0 0 0 j 0 j 0 j j j 0 j 0 j 0 j 0 0 0 0 0 0 0 0 0 9 9 9 9 9 8 9 G ) #.b &.s 6 7 7 7 & $ 9 9 0 7 * o ",
"o 0 0 0 0 W k 0 0 0 0 0 0 0 0 0 j 0 j 0 j 0 j 0 j 0 j 0 j 0 0 0 0 0 0 0 0 0 9 9 9 9 9 8 9 u O.O.J @.x 7 6 7 7 7 & $ 9 0 0 7 * o ",
"X 0 0 0 0 Q k 0 0 0 0 0 0 0 0 j 0 j 0 j 0 j 0 j 0 j 0 j 0 a 0 0 0 0 0 0 0 9 9 9 9 9 8 p J &.O.| } | d 7 7 7 7 7 & $ 8 0 0 7 * o ",
"o 0 0 0 0 Q k 0 0 j 0 0 j 0 j 0 j 0 j 0 j 0 j 0 j 0 j 0 j 0 0 0 0 0 0 0 9 0 9 9 9 8 b J } R b | P ( w 6 7 7 7 7 & $ 0 0 0 6 * o ",
"o 0 0 0 0 Q k 0 0 0 0 j 0 j 0 j 0 j 0 j 0 j 0 j 0 j 0 j 0 0 0 0 0 0 0 8 0 9 9 9 9 h | } ..( n H G x 6 7 7 7 7 7 & $ 0 0 0 7 * o ",
"o 8 6 Q 0 Q k 0 0 0 j 0 j 0 j 0 j 0 j 0 j 0 j 0 j 0 j 0 0 0 0 0 0 0 9 0 9 9 9 9 C O.#...| ` O.G P 6 7 7 7 7 8 7 & $ 8 6 Q 7 & o ",
"o * & 6 0 Q k 0 0 j 0 j 0 j 0 j 0 j 0 j 0 j 0 j 0 j 0 0 0 0 0 0 0 9 0 9 9 9 9 h O.@.C #.O.| } H 6 7 7 7 7 7 7 7 & $ * & 6 7 * o ",
"o & * 7 0 Q k 0 j 0 j 0 j 0 j 0 j 0 j 0 j 0 j 0 j 0 0 0 0 0 0 0 8 0 9 9 9 9 9 ( ..G +.$.+.^ v 6 7 6 7 7 7 7 8 7 & $ * * 7 7 * o ",
"o 9 9 0 0 Q k j 0 j 0 j 0 j 0 j 0 j 0 j 0 j 0 j 0 0 0 0 0 0 0 0 0 9 9 9 9 9 R ..} #.} } w 7 6 7 6 7 7 7 7 8 7 7 % $ 9 9 9 7 * o ",
"o 0 0 0 0 Q k 0 j 0 j 0 j 0 j m [ { Q Q _ _ _ ! ~ 0 0 0 0 0 0 0 9 9 9 9 p ..=.P ..} o.d 7 6 7 6 7 7 7 7 7 7 8 7 & $ 0 9 9 7 * o ",
"o 0 0 0 0 Q k j 0 j 0 j 0 j 0 , : > > r , l z m ~ 0 0 0 0 0 0 9 9 9 9 9 O.#.#.O.....n w 7 7 6 7 6 7 7 7 7 8 7 7 & $ 9 9 8 7 * o ",
"o 0 0 0 0 Q k 0 j 2 4 5 j 0 * X : o m > , - _ z B 0 0 0 0 0 9 9 9 9 p | | R ( #.^ G v 7 7 6 7 6 7 7 7 7 8 7 8 7 & $ 9 8 6 7 * o ",
"o 0 0 0 0 Q k j 7 + < 5 0 9 6 X : : : > > , , l B 0 0 0 0 9 0 9 9 h | O.| } #.R n g 7 7 6 7 6 7 6 7 7 7 7 8 8 7 & $ 9 7 * 7 * o ",
"o 8 6 Q 0 Q k 7 * O < 4 k 7 * X : : : : > > , , B 0 0 0 8 0 8 9 h ) #.J ;.#.( d u 7 7 6 7 6 7 6 7 7 7 7 8 7 8 7 & $ 7 * a 7 * o ",
"o * % 6 0 Q 0 6 7 O < 4 j 7 * X : : : : : > > , m 0 0 9 0 9 9 b E #.K >.#.[ w 8 7 7 6 7 6 7 6 7 6 7 7 8 7 8 8 7 % $ 6 % * 7 * o ",
"o * * 8 a Q 8 6 F O < 4 j 7 * X - = < 3 3 5 > > m 0 9 0 9 9 S K #.o.@.O.;.^ 8 7 7 7 7 6 7 6 7 6 7 7 7 7 8 8 8 7 % $ * * 7 7 * o ",
"o 9 9 j k k 8 6 k O < 3 j 7 6 X = X @     3 : > m 8 0 9 9 S f ..[ ) ( G 7 8 7 7 7 7 6 7 6 7 6 7 7 7 7 8 7 8 8 7 & $ * * 8 7 * o ",
"o j k k F 0 8 6 k O < 3 j 7 * X o X @     3 : : m 0 9 9 S f @.} $.@.i e 8 7 8 7 7 6 7 6 7 6 7 6 7 7 8 7 8 8 8 7 & $ * 7 8 7 * o ",
"o k k F F 0 8 6 k O < 3 j 7 * X X X + X X 3 : : m 9 9 Y f @.( O.E v 8 8 7 8 7 7 6 7 6 7 6 7 6 7 7 7 7 8 8 8 8 7 % $ 6 7 9 7 * o ",
"o k F F Q 0 8 6 j O < 2 j 7 * X X X + + @ < : : m 9 Y K &.) $.( 8 8 8 7 8 7 7 6 7 6 7 6 7 6 7 7 7 7 8 7 8 8 8 7 & $ 6 7 9 7 & o ",
"o F Q Q Q 0 8 6 j O < 2 j 7 * X X X X X X X : : z S S ;.-.;...J 8 8 7 8 7 7 6 7 6 7 6 7 6 7 7 7 7 8 7 8 8 8 8 7 & $ 7 8 0 7 * o ",
"o k 0 Q X.0 8 6 j O < 1 j 7 6 X X X X X X = : : B S -.$.;.#.( g 8 7 8 7 7 7 7 6 7 6 7 6 7 6 7 7 7 7 8 8 8 8 8 7 % $ 7 * F 7 * o ",
"o 0 * 0 Q 0 8 6 7 % O @ 0 7 * X o o = = - : : z B ;...;.-.) 8 8 7 8 7 7 7 7 6 7 6 7 6 7 6 7 7 7 7 8 7 8 8 8 8 7 & $ * & * 7 * o ",
"o 0 0 k Q 0 8 6 * * 6 0 0 7 * X o . > - : X l m >.-.$.@.R 8 8 7 8 7 7 7 7 6 7 6 7 6 7 6 7 7 7 7 8 7 8 8 8 8 9 7 & $ * * 8 7 * o ",
"o k k Q F 0 8 6 6 6 0 0 0 7 * X X o - - - : B &.&.$.Z h 8 8 7 8 7 8 7 7 6 7 6 7 6 7 6 7 7 7 7 7 7 8 8 8 8 8 8 7 & $ 6 8 9 7 * o ",
"o X.Q F F 0 8 6 8 0 0 0 0 8 * X X X X X ; m B &.$.K 9 8 8 8 8 7 8 7 7 6 7 6 7 6 7 6 7 6 7 7 7 7 8 7 8 8 8 8 9 7 & $ 7 8 9 7 & o ",
"o Q F F k 0 9 8 0 0 0 0 0 7 * * * * * q P x &.;.=.9 8 8 8 8 7 8 7 7 7 7 6 7 6 7 6 7 6 7 7 7 7 8 7 8 8 8 8 9 8 7 % $ 8 9 0 7 * o ",
"o F F k k 0 8 0 0 0 0 0 0 7 7 7 7 7 7 R ) &.;...b 8 8 8 8 7 8 7 7 7 7 6 7 6 7 6 7 6 7 7 7 7 8 7 8 8 8 8 8 8 9 7 & $ 8 9 0 7 * o ",
"o F k j j j 0 0 0 0 0 0 0 0 0 0 0 K E ;.=.( K Y 8 8 8 8 7 8 7 7 7 7 6 7 6 7 6 7 6 7 7 7 7 7 7 8 7 8 8 8 8 9 8 7 & $ 9 9 0 7 * o ",
"o 8 7 Q j Q 0 0 0 0 0 0 0 0 0 0 U ] ..$...S R 8 8 8 8 7 8 7 7 7 7 6 7 6 7 6 7 6 7 6 7 7 7 7 8 7 8 8 8 8 8 8 9 7 & $ 8 6 Q 7 & o ",
"o * & 6 j Q j 0 0 0 0 0 0 0 0 n  .-.O.O.S K K 8 8 8 7 8 7 7 7 7 6 7 6 7 6 7 6 7 6 7 7 7 7 8 7 8 8 8 8 8 8 9 9 7 & $ * & 6 7 * o ",
"o * * 7 j Q k 0 0 0 0 0 0 0 b E $.] [ } Y Z 9 8 8 7 8 7 8 7 7 6 7 6 7 6 7 6 7 6 7 7 7 7 7 7 8 7 8 8 8 8 9 8 9 7 & $ * * 7 7 * o ",
"o 9 9 j j Q k 0 0 0 0 0 0 R ..$.@.@.} R g 9 8 8 7 8 7 8 7 7 7 7 6 7 6 7 6 7 6 7 7 7 7 7 7 8 7 8 8 8 8 8 8 9 9 7 & $ 9 9 0 7 * o ",
"o j j j 0 Q k 0 0 0 0 0 R @.@.E [ [ f 8 9 8 8 8 8 7 8 7 7 7 7 6 7 6 7 6 7 6 7 6 7 7 7 7 8 7 8 8 8 8 8 8 9 8 9 7 % $ 9 9 0 7 * o ",
"o j j 0 0 Q k 0 0 0 V ( @.) ..[ ) Y 8 9 8 8 8 8 7 8 7 7 7 7 6 7 6 7 6 7 6 7 6 7 7 7 7 7 7 8 7 8 8 8 8 8 8 9 9 7 % $ 9 9 0 7 * o ",
"o 0 0 0 0 Q k 0 0 a #.=.Y E ..=.K 8 9 8 8 8 8 7 8 7 7 7 7 6 7 6 7 6 7 6 7 6 7 7 7 7 7 7 8 7 8 8 8 8 8 8 9 9 9 7 % $ 9 9 0 7 * o ",
"o 0 0 0 0 Q k 0 0 ..:.[ A @.=.} p 9 8 8 8 8 7 8 7 7 7 7 6 7 6 7 6 7 6 7 6 7 7 7 7 7 7 8 7 8 8 8 8 8 8 9 8 9 9 7 & $ 9 0 0 7 & o ",
"o 8 7 Q 0 Q k 0 O.$.T E R ..U p 9 8 8 8 8 7 8 7 7 7 7 6 7 7 7 6 7 6 7 6 7 6 7 7 7 7 8 7 8 7 8 8 8 8 8 8 9 9 9 7 & $ 8 6 Q 7 * o ",
"o * & 6 0 Q k #.;.C U ..0 p 9 9 8 8 8 8 8 8 7 7 7 7 7 7 7 7 6 7 6 7 6 7 6 7 7 7 7 7 7 8 7 8 8 8 8 9 8 9 8 9 9 9 * $ * & 6 7 * o ",
"o * * 7 0 Q #.#.E D  .] k k k k k k k k k k k k j j j 0 0 0 9 9 9 9 0 0 j j j j j a j j j j j a 0 0 0 0 0 0 0 0 * $ * * 7 7 * o ",
"o 9 9 0 0 =.=.@.{ =.X.Q Q Q Q Q Q Q Q Q Q Q Q Q F F F F k k j j j k k F F F F F F F F F F F F F F F U k k k k j 7 * 9 9 0 7 * o ",
"o 0 0 a ....E ^ ..T 0 0 0 0 9 9 9 9 8 8 8 8 8 8 8 8 7 6 6 * 6 * * * 7 7 7 8 8 8 8 8 8 9 9 0 0 0 0 0 0 0 0 0 0 0 0 0 0 0 0 7 * o ",
"o 0 ] =.O.K | ;.K 0 0 0 0 8 6 Q 9 8 8 8 8 8 & 0 8 7 6 6 * * & 8 * * 6 7 8 8 & 0 8 8 8 9 0 8 6 Q 0 0 0 0 0 8 6 Q 0 0 0 0 0 7 * o ",
"o T -.@.O.O.O.} [ 0 0 0 0 * % 6 8 8 8 8 8 * # & 7 6 7 * * & # $ * 6 6 7 8 * # & 8 8 9 9 0 * % 6 0 0 0 0 0 * & 6 0 0 0 0 0 6 * o ",
"= D ..E ] I ~ P 0 0 0 0 0 * * 7 8 8 8 8 8 * * 7 7 6 6 * * & & * 6 6 7 8 8 * * 8 8 8 9 0 0 * & 7 0 0 0 0 0 & * 6 0 0 0 0 0 6 * = ",
"- - - - - - - - - - - - - - - - - - - - - - - - - - - - - - - - - - - - - - - - - - - - - - - - - - - - - - - - - = - - - - - - "
};
