/* XPM */
static char *d71f790e639840f6d30869128dcba569ZguUhkTe7bg7dsGG[] = {
/* columns rows colors chars-per-pixel */
"64 64 69 1 ",
"  c black",
". c #202020",
"X c #2C2C2C",
"o c gray22",
"O c #404000",
"+ c #585400",
"@ c #706C00",
"# c #004040",
"$ c #005858",
"% c #006C6C",
"& c #007070",
"* c #007474",
"= c #007878",
"- c #007C7C",
"; c #484848",
": c gray33",
"> c #646464",
", c gray44",
"< c #7C7C7C",
"1 c #848400",
"2 c #9C9C00",
"3 c #B4AC00",
"4 c #CCC400",
"5 c #E4D800",
"6 c #FCF400",
"7 c #008484",
"8 c #008C8C",
"9 c #009898",
"0 c #398282",
"q c #00A4A4",
"w c #20B0B0",
"e c #20B4B4",
"r c #6A9898",
"t c #7FA2A2",
"y c #61BBBB",
"u c #64BBBB",
"i c #48C0C0",
"p c #77C0C0",
"a c #74C8C8",
"s c gray55",
"d c #989898",
"f c #86A6A6",
"g c #89A3A3",
"h c #8AAAAA",
"j c #9DB6B6",
"k c gray66",
"l c #A5BABA",
"z c #B4B4B4",
"x c #91CACA",
"c c #9BCDCD",
"v c #9CDCDC",
"b c #AECCCC",
"n c #BCCBCB",
"m c #A5D1D1",
"M c #B8E8E8",
"N c #C0C0C0",
"B c #C0DDDD",
"V c #D0D0D0",
"C c #C8E3E3",
"Z c #DAE7E7",
"A c #D7E9E9",
"S c #D9EAEA",
"D c #D8F4F4",
"F c #E3E8E8",
"G c #E7F3F3",
"H c #EAF1F1",
"J c #F2F7F7",
"K c #F3F8F8",
"L c #F8FBFB",
/* pixels */
"oooooooooooooooooooooooooooooooooooooooooooooooooooooooooooooooo",
"ohftlnjj=======================================================o",
"oAHZHFgp88888*&w98888*&w88888*&w88888*&w88888*&w88888*&w888888=o",
"ocCGHr#&wwwww-#&wwwww-#&wwwww-#&eeiiw-#&iiiww-#&wwwww-#&w98898=o",
"oBLKm0-8wwwww=-8wwwww=-8wwwww=-8eiavw=-8iiwww=-8wwwww=-8988898=o",
"oSJxw7$$$$$$$$$$$$$$$$$$$$$$$$$$$$$$$$$$$$$$$$$$$$$$$$$$$$8998=o",
"oupwww-=&&&&&&&&&&&&&&&&&&&&&&&&&&&&&&&&&&&&&&&&&&&&&&&&&$8998=o",
"ob7Mwvw8888888888888888888888888888888888888888888888888&$97M8=o",
"o-&7wMiqqqqqqqqqqqqqqqqqwwwweeeeeieieieieeeewwwqqqqq9998&$-&78=o",
"o=-8wMaqqqqqqqqqqqqqqqwwwwweeeeeieieieieeeewwwqqqqq99998&$=-88=o",
"oqqwwMaqqqqqqqqqqqqqwwwwweeeeieieieieieeeewwwqqqqq9q9998&$9qq8=o",
"owwwwMaqqqqqqqqqqqwwwwweeeeeieieieieieeeewwwqwqqq9q99888&$9qq8=o",
"owyywMaqqqqqqqqwwwwwweeeeieieieieieieeeewwwqwqqq9q998888&$9qw8=o",
"owyywMaqqqqqqwwwwwweeeeeieieieieieieeeewwwqwqqq9q9999888&$qqw8=o",
"owwwwMaqqqqwwwwwweeeeeeieieieieieieeeewwwqwqqq9q99998888&$qww8=o",
"o97MwMaqqwwwwwwweeeeeeieieieieieieeeewwwqwqqq9q999988888&$97M8=o",
"o-&7wMawwwwwwweeeeeieieieieieieieeeewwwwwqqqqq9999888788&$-&78=o",
"o=-8wMawwwwweeeeeeieieieieieieieeeewewwwqqqqq99998888788&$=-88=o",
"oqqwwMawwweeeeeeeieieieieieieieeeewewwwqqqqq9q9989887888&$qqw8=o",
"owwwwMaweeeeeeeeieieieieieieieeeewewwwqqqqq9q99898887888&$qww8=o",
"owwwwMaeeeeeeeeieieieieieieieieewewwwqqqqq9q998988888888&$qww8=o",
"owwwwMaeeeeeieieieieieieieieieewewwwqwqqq9q9999888878888&$www8=o",
"owwwwMaeeeeieieieieieieieieieewewwwqwqqqqq99998888788888&$www8=o",
"o97MwMaeeeieieieieieieieieieewewwwqwqqqqq999989887888898&$97M8=o",
"o-&7wMaeeieieieieieieieieieewewwwqwqqqqq9999898878888888&$-&78=o",
"o=-8wMaeieieieieieieieieieewewwwqwqqqqq99998988787888898&$=-88=o",
"oqqwwMaieieieieieieieieieewewwwwwqqqqq9q9989887878888988&$qqq8=o",
"owwwwMaeieieieikVVVVVVVNNwewwwwwqqqqq9q99898878788888898&$wqq8=o",
"owweeMaieieieiw<>,,<<sdkNewwwwwqqqqq9q999988887878888988&$qq98=o",
"oweeeMaei356iw-X>ok,<:Vdzwwwwwqqqqq9q9999898878788889898&$q978=o",
"oeeeeMai=+16eq-X>>>,,<<szwwwwqwqqq9q99998988787878888998&$q8-8=o",
"o97MeMa7*O15a8-X>>>>,,<<zwwwqwqqqqq999989887878788889898&$8=i8=o",
"o-&7eMw78O15i8-X>>>>>,,<kwwqwqqqqq9999898878787878898998&$-%=8=o",
"o=-8iM97vO15i8-X:;1446,,kwqwqqqqq99998988887878788889998&$=-88=o",
"oqqiaa97aO14i8-X;X@  4>,kqwqqqqq9q9989888878787888898998&$--98=o",
"oiaave97aO14i8-XoX@  4>>kwqqqqq9q99898988787878788989998&$-898=o",
"oaavvw97aO14i8-XXX+XX4>>kqqqqq9q999989887878787888899998&$78q8=o",
"oavvMw97iO13i8-XXX++@1>>kqqqq9q9999898878787878888989998&$78q8=o",
"ovMMMw97iO13i8-XXXXXXX>>dqqq9q99998988787878788889899998&$89w8=o",
"oaeMDw97iO12i8-XXXXXX;>>dqq9q999989888878787878888999998&$8-v8=o",
"ow-eMw978*O@e8-Xoo;;:>>>dqqq9999898888787878788889899998&$-&-8=o",
"owwaMe97==7ee8-Xo.,:>Xs>sqq9q9989888878787878888989999q8&$=-88=o",
"oaaMve9777eee8-XXo:::>>>sq9q9989898878787878888889999998&$79q8=o",
"oDMvve978eeew8-XXXXXXXXX>9q999989887878787878888989999q8&$89q8=o",
"oMvvae99eeeew8----------9q999989888878787878888989999q98&$9qw8=o",
"ovvaae9eeeeww8888888888qq99998988887878787888898999999q8&$9qw8=o",
"ovaiiiweeewwwwwwwqwqqqqq99998988887878787888888989999q98&$qqw8=o",
"o97MiMeeewwwwwwwqwqqqqq9999898888787878787888898999999q8&$97M8=o",
"o-&7iMiewwwwwwwqwqqqqq9999898888787878787888898999999qq8&$-&78=o",
"o=-8iMawwwwwwwqwqwqqq9q99898988787878787888888989999q9q8&$=-88=o",
"oqqiiMawwwwwwqwqwqqq9q9989898888787878788888898999999qq8&$qqw8=o",
"oiiieMawwwwwqwqwqqq9q9999898888787878787888898999999q9q8&$qqw8=o",
"oiieeMawwwwqwqwqqq9q999989888878787878788888898999999qq8&$qqw8=o",
"oeeeeMawwwqwqwqwq9q999989888878787878788888898999999qqq8&$qqw8=o",
"oeeeeMawwqwqwqwqqq999989888878787878788888898999999q9qq8&$qww8=o",
"o97MeMawwwqwqwqqq99998988887888787878788889898999999qqq8&$97M8=o",
"o-&7eMawwqwqwqqq99998988888888787878788888898999999q9qqq=$-&78=o",
"o=-8wMaaaaaaaaaaaaaaaaaaiiieewqqqqweiiiiiiiiiiiieeeeeeee-$=-88=o",
"oqqwwMMMMMMMMMMMMMMMMMMMvvvvaaiiiaavvvvvvvvvvvvvvvvaaaai8-qqw8=o",
"owwwwwwwwwwwwwqqqq99999999877-----788999999qqwwwwwwwwwwwwwwww8=o",
"owwww97Mwwwww97Mq99999&e9877-=&9--7899&e999qw97Mwwwww97Mwwwww8=o",
"owwww-&7wwwww-&799999-#&877--&#$-7789-#&99qqw-&7wwwww-&7wwwww8=o",
";wwww=-8wwwww=-899999=-8877--&&=77899=-899qww=-8wwwww=-8wwwww8=;",
"::::::::::::::::::::::::::::::::::::::::::::::::::::::::::::::::"
};
