/* XPM */
static char *_fd19d881fc04515c846f063240cc0acb6rrjnhh5cGTNr1z[] = {
/* columns rows colors chars-per-pixel */
"64 64 105 2 ",
"   c black",
".  c #202020",
"X  c #2C2C2C",
"o  c gray22",
"O  c #404000",
"+  c #585400",
"@  c #706C00",
"#  c #004040",
"$  c #005858",
"%  c #006C6C",
"&  c #007070",
"*  c #007474",
"=  c #007878",
"-  c #007C7C",
";  c #484848",
":  c gray33",
">  c #517373",
",  c #646464",
"<  c gray44",
"1  c #7C7C7C",
"2  c #848400",
"3  c #9C9C00",
"4  c #B4AC00",
"5  c #CCC400",
"6  c #E4D800",
"7  c #FCF400",
"8  c #008484",
"9  c #008C8C",
"0  c #009898",
"q  c #00A4A4",
"w  c #20B0B0",
"e  c #20B4B4",
"r  c #2BB1B1",
"t  c #518484",
"y  c #519A9A",
"u  c #7F9E9E",
"i  c #51AEAE",
"p  c #57B8B8",
"a  c #5BB9B9",
"s  c #7FA2A2",
"d  c #7FADAD",
"f  c #7FBCBC",
"g  c #48C0C0",
"h  c #77C1C1",
"j  c #74C8C8",
"k  c gray55",
"l  c #989898",
"z  c #90ACAC",
"x  c #9DAAAA",
"c  c #90B6B6",
"v  c #9EB3B3",
"b  c #9EB7B7",
"n  c #9EBEBE",
"m  c gray66",
"M  c #AFBFBF",
"N  c #B4B4B4",
"B  c #82C4C4",
"V  c #87CDCD",
"C  c #90C3C3",
"Z  c #9EC9C9",
"A  c #9DCECE",
"S  c #9CDCDC",
"D  c #A6C8C8",
"F  c #A9CECE",
"G  c #B8CECE",
"H  c #AFD2D2",
"J  c #A9D4D4",
"K  c #ABD4D4",
"L  c #AAD9D9",
"P  c #B0D6D6",
"I  c #BFD2D2",
"U  c #B8D6D6",
"Y  c #B4D8D8",
"T  c #BADBDB",
"R  c #BDD9D9",
"E  c #B8E8E8",
"W  c #C0C0C0",
"Q  c #C3CACA",
"!  c #C6D1D1",
"~  c #C3D5D5",
"^  c #CAD8D8",
"/  c #CED9D9",
"(  c #CEDDDD",
")  c #D0D0D0",
"_  c #D4D7D7",
"`  c #D2DBDB",
"'  c #D8DCDC",
"]  c #C5E0E0",
"[  c #CAE0E0",
"{  c #CFE2E2",
"}  c #CDE7E7",
"|  c #CAEDED",
" . c #D4E7E7",
".. c #D2E9E9",
"X. c #D5EBEB",
"o. c #D7ECEC",
"O. c #D9E8E8",
"+. c #D7F1F1",
"@. c #DAF2F2",
"#. c #DEF3F3",
"$. c #D8F4F4",
"%. c #E0E5E5",
"&. c #E3EBEB",
"*. c #E8F7F7",
"=. c #EAF7F7",
/* pixels */
"o o o o o o o o o o o o o o o o o o o o o o o o o o o o o o o o o o o o o o o o o o o o o o o o o o o o o o o o o o o o o o o o ",
"o - = = = = = = = = = = = = = s ` b z s = = = = = = = = = = = = = = = = = = = = = = = = = = = = = = = = = = = = = = = = = = = o ",
"o w 0 0 9 * & w 9 9 9 9 9 * u ] D ( ~ d 9 * & w 9 9 9 9 9 * & w 9 9 9 9 9 * & w 9 9 9 9 9 * & w 9 9 9 9 9 * & w 9 9 9 9 9 9 = o ",
"o w w w w - # & w w w w w b _ %.T Y h w w - # & w w w w w - # & e e g g w - # & g g g w w - # & w w w w w - # & w 0 9 9 0 9 = o ",
"o w w w w = - 9 w w w w P %.b &.K p w w w = - 9 w w w w w = - 9 e g j S w = - 9 g g w w w = - 9 w w w w w = - 9 0 9 9 9 0 9 = o ",
"o w w w w 8 $ $ $ $ > Q %.x ' M $ $ $ $ $ $ $ $ $ $ $ $ $ $ $ $ $ $ $ $ $ $ $ $ $ $ $ $ $ $ $ $ $ $ $ $ $ $ $ $ $ $ 9 0 0 9 = o ",
"o w w w w w - = & t v ` M G ! & & & & & & & & & & & & & & & & & & & & & & & & & & & & & & & & & & & & & & & & & & $ 9 0 0 9 = o ",
"o 0 8 E w S w 9 y G ^ c d M 9 9 9 9 9 9 9 9 9 9 9 9 9 9 9 9 9 9 9 9 9 9 9 9 9 9 9 9 9 9 9 9 9 9 9 9 9 9 9 9 9 9 & $ 0 8 E 9 = o ",
"o - & 8 w E g i U [ C f f q q q q q q q q q q q w w w w e e e e e g e g e g e g e e e e w w w q q q q q 0 0 0 9 & $ - & 8 9 = o ",
"o = - 9 w E V Z O.F f f q q q q q q q q q q w w w w w e e e e e g e g e g e g e e e e w w w q q q q q 0 0 0 0 9 & $ = - 9 9 = o ",
"o q q w w | X.{ U f f q q q q q q q q q w w w w w e e e e g e g e g e g e g e e e e w w w q q q q q 0 q 0 0 0 9 & $ 0 q q 9 = o ",
"o w w w p +.o.( H R q q q q q q q q w w w w w e e e e e g e g e g e g e g e e e e w w w q w q q q 0 q 0 0 9 9 9 & $ 0 q q 9 = o ",
"o w w w T @...f f q q q q q q w w w w w w e e e e g e g e g e g e g e g e e e e w w w q w q q q 0 q 0 0 9 9 9 9 & $ 0 q w 9 = o ",
"o w p ] B *.} f q q q q q w w w w w w e e e e e g e g e g e g e g e g e e e e w w w q w q q q 0 q 0 0 0 0 9 9 9 & $ q q w 9 = o ",
"o B A K  .#.L q q q q w w w w w w e e e e e e g e g e g e g e g e g e e e e w w w q w q q q 0 q 0 0 0 0 9 9 9 9 & $ q w w 9 = o ",
"o D n *.B | j q q w w w w w w w e e e e e e g e g e g e g e g e g e e e e w w w q w q q q 0 q 0 0 0 0 9 9 9 9 9 & $ 0 8 E 9 = o ",
"o z / ^ B E j w w w w w w w e e e e e g e g e g e g e g e g e g e e e e w w w w w q q q q q 0 0 0 0 9 9 9 8 9 9 & $ - & 8 9 = o ",
"o c / I w E j w w w w w e e e e e e g e g e g e g e g e g e g e e e e w e w w w q q q q q 0 0 0 0 9 9 9 9 8 9 9 & $ = - 9 9 = o ",
"o Z ~ a w E j w w w e e e e e e e g e g e g e g e g e g e g e e e e w e w w w q q q q q 0 q 0 0 9 0 9 9 8 9 9 9 & $ q q w 9 = o ",
"o K A w w E j w e e e e e e e e g e g e g e g e g e g e g e e e e w e w w w q q q q q 0 q 0 0 9 0 9 9 9 8 9 9 9 & $ q w w 9 = o ",
"o r p w w E j w e e e e e e e g e g e g e g e g e g e g e g e e w e w w w q q q q q 0 q 0 0 9 0 9 9 9 9 9 9 9 9 & $ q w w 9 = o ",
"o w w w w E j e e e e e g e g e g e g e g e g e g e g e g e e w e w w w q w q q q 0 q 0 0 0 0 9 9 9 9 8 9 9 9 9 & $ w w w 9 = o ",
"o w w w w E j e e e e g e g e g e g e g e g e g e g e g e e w e w w w q w q q q q q 0 0 0 0 9 9 9 9 8 9 9 9 9 9 & $ w w w 9 = o ",
"o 0 8 E w E j e e e g e g e g e g e g e g e g e g e g e e w e w w w q w q q q q q 0 0 0 0 9 0 9 9 8 9 9 9 9 0 9 & $ 0 8 E 9 = o ",
"o - & 8 w E j e e g e g e g e g e g e g e g e g e g e e w e w w w q w q q q q q 0 0 0 0 9 0 9 9 8 9 9 9 9 9 9 9 & $ - & 8 9 = o ",
"o = - 9 w E j e g e g e g e g e g e g e g e g e g e e w e w w w q w q q q q q 0 0 0 0 9 0 9 9 8 9 8 9 9 9 9 0 9 & $ = - 9 9 = o ",
"o q q w w E j g e g e g e g e g e g e g e g e g e e w e w w w w w q q q q q 0 q 0 0 9 0 9 9 8 9 8 9 9 9 9 0 9 9 & $ q q q 9 = o ",
"o w w w w E j e g e g e g e g m ) ) ) ) ) ) ) W W w e w w w w w q q q q q 0 q 0 0 9 0 9 9 8 9 8 9 9 9 9 9 9 0 9 & $ w q q 9 = o ",
"o w w e e E j g e g e g e g w 1 , < < 1 1 k l m W e w w w w w q q q q q 0 q 0 0 0 0 9 9 9 9 8 9 8 9 9 9 9 0 9 9 & $ q q 0 9 = o ",
"o w e e e E j e g 4 6 7 g w - X , o m < 1 : ) l N w w w w w q q q q q 0 q 0 0 0 0 9 0 9 9 8 9 8 9 9 9 9 0 9 0 9 & $ q 0 8 9 = o ",
"o e e e e E j g = + 2 7 e q - X , , , < < 1 1 k N w w w w q w q q q 0 q 0 0 0 0 9 0 9 9 8 9 8 9 8 9 9 9 9 0 0 9 & $ q 9 - 9 = o ",
"o 0 8 E e E j 8 * O 2 6 j 9 - X , , , , < < 1 1 N w w w q w q q q q q 0 0 0 0 9 0 9 9 8 9 8 9 8 9 9 9 9 0 9 0 9 & $ 9 = g 9 = o ",
"o - & 8 e E w 8 9 O 2 6 g 9 - X , , , , , < < 1 m w w q w q q q q q 0 0 0 0 9 0 9 9 8 9 8 9 8 9 8 9 9 0 9 0 0 9 & $ - % = 9 = o ",
"o = - 9 g E 0 8 S O 2 6 g 9 - X : ; 2 5 5 7 < < m w q w q q q q q 0 0 0 0 9 0 9 9 9 9 8 9 8 9 8 9 9 9 9 0 0 0 9 & $ = - 9 9 = o ",
"o q q g j j 0 8 j O 2 5 g 9 - X ; X @     5 , < m q w q q q q q 0 q 0 0 9 0 9 9 9 9 8 9 8 9 8 9 9 9 9 0 9 0 0 9 & $ - - 0 9 = o ",
"o g j j S e 0 8 j O 2 5 g 9 - X o X @     5 , , m w q q q q q 0 q 0 0 9 0 9 0 9 9 8 9 8 9 8 9 8 9 9 0 9 0 0 0 9 & $ - 9 0 9 = o ",
"o j j S S w 0 8 j O 2 5 g 9 - X X X + X X 5 , , m q q q q q 0 q 0 0 0 0 9 0 9 9 8 9 8 9 8 9 8 9 9 9 9 0 0 0 0 9 & $ 8 9 q 9 = o ",
"o j S S E w 0 8 g O 2 4 g 9 - X X X + + @ 2 , , m q q q q 0 q 0 0 0 0 9 0 9 9 8 9 8 9 8 9 8 9 9 9 9 0 9 0 0 0 9 & $ 8 9 q 9 = o ",
"o S E E E w 0 8 g O 2 4 g 9 - X X X X X X X , , l q q q 0 q 0 0 0 0 9 0 9 9 8 9 8 9 8 9 8 9 9 9 9 0 9 0 0 0 0 9 & $ 9 0 w 9 = o ",
"o j e E $.w 0 8 g O 2 3 g 9 - X X X X X X ; , , l q q 0 q 0 0 0 0 9 0 9 9 9 9 8 9 8 9 8 9 8 9 9 9 9 0 0 0 0 0 9 & $ 9 - S 9 = o ",
"o w - e E w 0 8 9 * O @ e 9 - X o o ; ; : , , , l q q q 0 0 0 0 9 0 9 9 9 9 8 9 8 9 8 9 8 9 9 9 9 0 9 0 0 0 0 9 & $ - & - 9 = o ",
"o w w j E e 0 8 = = 8 e e 9 - X o . < : , X k , k q q 0 q 0 0 9 0 9 9 9 9 8 9 8 9 8 9 8 9 9 9 9 0 9 0 0 0 0 q 9 & $ = - 9 9 = o ",
"o j j E S e 0 8 8 8 e e e 9 - X X o : : : , , , k q 0 q 0 0 9 0 9 0 9 9 8 9 8 9 8 9 8 9 9 9 9 9 9 0 0 0 0 0 0 9 & $ 8 0 q 9 = o ",
"o $.E S S e 0 8 9 e e e w 9 - X X X X X X X X X , 0 q 0 0 0 0 9 0 9 9 8 9 8 9 8 9 8 9 8 9 9 9 9 0 9 0 0 0 0 q 9 & $ 9 0 q 9 = o ",
"o E S S j e 0 0 e e e e w 9 - - - - - - - - - - 0 q 0 0 0 0 9 0 9 9 9 9 8 9 8 9 8 9 8 9 9 9 9 0 9 0 0 0 0 q 0 9 & $ 0 q w 9 = o ",
"o S S j j e 0 e e e e w w 9 9 9 9 9 9 9 9 9 9 q q 0 0 0 0 9 0 9 9 9 9 8 9 8 9 8 9 8 9 9 9 9 0 9 0 0 0 0 0 0 q 9 & $ 0 q w 9 = o ",
"o S j g g g w e e e w w w w w w w q w q q q q q 0 0 0 0 9 0 9 9 9 9 8 9 8 9 8 9 8 9 9 9 9 9 9 0 9 0 0 0 0 q 0 9 & $ q q w 9 = o ",
"o 0 8 E g E e e e w w w w w w w q w q q q q q 0 0 0 0 9 0 9 9 9 9 8 9 8 9 8 9 8 9 8 9 9 9 9 0 9 0 0 0 0 0 0 q 9 & $ 0 8 E 9 = o ",
"o - & 8 g E g e w w w w w w w q w q q q q q 0 0 0 0 9 0 9 9 9 9 8 9 8 9 8 9 8 9 8 9 9 9 9 0 9 0 0 0 0 0 0 q q 9 & $ - & 8 9 = o ",
"o = - 9 g E j w w w w w w w q w q w q q q 0 q 0 0 9 0 9 0 9 9 8 9 8 9 8 9 8 9 8 9 9 9 9 9 9 0 9 0 0 0 0 q 0 q 9 & $ = - 9 9 = o ",
"o q q g g E j w w w w w w q w q w q q q 0 q 0 0 9 0 9 0 9 9 9 9 8 9 8 9 8 9 8 9 9 9 9 9 9 0 9 0 0 0 0 0 0 q q 9 & $ q q w 9 = o ",
"o g g g e E j w w w w w q w q w q q q 0 q 0 0 0 0 9 0 9 9 9 9 8 9 8 9 8 9 8 9 8 9 9 9 9 0 9 0 0 0 0 0 0 q 0 q 9 & $ q q w 9 = o ",
"o g g e e E j w w w w q w q w q q q 0 q 0 0 0 0 9 0 9 9 9 9 8 9 8 9 8 9 8 9 8 9 9 9 9 9 9 0 9 0 0 0 0 0 0 q q 9 & $ q q w 9 = o ",
"o e e e e E j w w w q w q w q w q 0 q 0 0 0 0 9 0 9 9 9 9 8 9 8 9 8 9 8 9 8 9 9 9 9 9 9 0 9 0 0 0 0 0 0 q q q 9 & $ q q w 9 = o ",
"o e e e e E j w w q w q w q w q q q 0 0 0 0 9 0 9 9 9 9 8 9 8 9 8 9 8 9 8 9 9 9 9 9 9 0 9 0 0 0 0 0 0 q 0 q q 9 & $ q w w 9 = o ",
"o 0 8 E e E j w w w q w q w q q q 0 0 0 0 9 0 9 9 9 9 8 9 9 9 8 9 8 9 8 9 8 9 9 9 9 0 9 0 9 0 0 0 0 0 0 q q q 9 & $ 0 8 E 9 = o ",
"o - & 8 e E j w w q w q w q q q 0 0 0 0 9 0 9 9 9 9 9 9 9 9 8 9 8 9 8 9 8 9 9 9 9 9 9 0 9 0 0 0 0 0 0 q 0 q q q = $ - & 8 9 = o ",
"o = - 9 w E j j j j j j j j j j j j j j j j j j g g g e e w q q q q w e g g g g g g g g g g g g e e e e e e e e - $ = - 9 9 = o ",
"o q q w w E E E E E E E E E E E E E E E E E E E S S S S j j g g g j j S S S S S S S S S S S S S S S S j j j j g 9 - q q w 9 = o ",
"o w w w w w w w w w w w w w q q q q 0 0 0 0 0 0 0 0 9 8 8 - - - - - 8 9 9 0 0 0 0 0 0 q q w w w w w w w w w w w w w w w w 9 = o ",
"o w w w w 0 8 E w w w w w 0 8 E q 0 0 0 0 0 & e 0 9 8 8 - = & 0 - - 8 9 0 0 & e 0 0 0 q w 0 8 E w w w w w 0 8 E w w w w w 9 = o ",
"o w w w w - & 8 w w w w w - & 8 0 0 0 0 0 - # & 9 8 8 - - & # $ - 8 8 9 0 - # & 0 0 q q w - & 8 w w w w w - & 8 w w w w w 9 = o ",
"; w w w w = - 9 w w w w w = - 9 0 0 0 0 0 = - 9 9 8 8 - - & & = 8 8 9 0 0 = - 9 0 0 q w w = - 9 w w w w w = - 9 w w w w w 9 = ; ",
": : : : : : : : : : : : : : : : : : : : : : : : : : : : : : : : : : : : : : : : : : : : : : : : : : : : : : : : : : : : : : : : "
};
